<svg width="309" height="250" viewBox="0 0 309 250" fill="none" xmlns="http://www.w3.org/2000/svg">
<g clip-path="url(#clip0)">
<path opacity="0.08" d="M1.51028 89.4662C32.3062 -13.4036 165.231 -5.24533 251.634 39.5564C338.037 84.3581 318.436 239.563 243.633 247.963C168.831 256.364 133.793 214.269 71.2277 189.561C39.2402 176.929 -9.17508 125.159 1.51028 89.4662Z" fill="url(#paint0_linear)"/>
<path d="M119.45 54.4477C113.602 70.5111 99.3579 79.8738 86.9326 78.5994C84.2297 78.3219 77.9399 76.0506 76.09 75.3826C61.3626 70.0178 59.4202 53.3891 66.1005 35.0338C72.7807 16.6785 85.5554 4.46901 100.293 9.83377C103.684 11.3067 106.956 13.042 110.077 15.0238C120.796 22.6804 125.226 38.5898 119.45 54.4477Z" fill="#FF9A2E"/>
<path d="M114.054 42.176C113.974 42.3519 113.967 42.5523 114.034 42.7335C114.102 42.9146 114.238 43.0615 114.414 43.1421L121.608 45.7525C121.68 45.2181 121.742 44.6734 121.793 44.139L114.989 41.6622C114.894 41.6339 114.794 41.6248 114.696 41.6354C114.597 41.646 114.501 41.676 114.414 41.7238C114.327 41.7716 114.251 41.8362 114.189 41.9138C114.127 41.9915 114.081 42.0806 114.054 42.176Z" fill="#EF7F18"/>
<path d="M114.301 31.9093C114.26 31.9961 114.236 32.0903 114.232 32.1863C114.228 32.2823 114.243 32.3782 114.277 32.4682C114.31 32.5583 114.361 32.6407 114.427 32.7106C114.493 32.7805 114.572 32.8365 114.66 32.8753L121.515 35.3727C121.423 34.7664 121.32 34.1703 121.197 33.5845L115.195 31.4057C115.103 31.3792 115.007 31.3712 114.912 31.3823C114.817 31.3933 114.725 31.4231 114.642 31.47C114.559 31.5169 114.486 31.5799 114.427 31.6553C114.369 31.7307 114.326 31.8171 114.301 31.9093Z" fill="#EF7F18"/>
<path d="M113.026 25.1467C112.948 25.3229 112.943 25.5223 113.01 25.7027C113.077 25.883 113.212 26.0301 113.386 26.1128L119.716 28.4149C119.46 27.7468 119.192 27.0891 118.905 26.4519L113.93 24.6328C113.742 24.585 113.543 24.6117 113.375 24.7076C113.206 24.8034 113.081 24.9607 113.026 25.1467Z" fill="#EF7F18"/>
<path d="M110.641 52.5761C110.6 52.663 110.577 52.7572 110.573 52.8532C110.569 52.9492 110.584 53.045 110.617 53.1351C110.651 53.2251 110.702 53.3075 110.768 53.3775C110.834 53.4474 110.913 53.5034 111.001 53.5422L118.699 56.3479C118.894 55.8649 119.089 55.3819 119.274 54.8885L111.536 52.0726C111.444 52.046 111.348 52.0381 111.253 52.0491C111.158 52.0602 111.066 52.09 110.983 52.1369C110.9 52.1838 110.827 52.2467 110.768 52.3222C110.709 52.3976 110.666 52.4839 110.641 52.5761Z" fill="#EF7F18"/>
<path d="M106.88 60.8294C106.8 61.0053 106.793 61.2057 106.86 61.3868C106.928 61.5679 107.064 61.7149 107.24 61.7955L114.208 64.334C114.527 63.8921 114.835 63.4501 115.143 62.9979L107.785 60.3156C107.597 60.2677 107.398 60.2945 107.229 60.3903C107.06 60.4861 106.935 60.6435 106.88 60.8294Z" fill="#EF7F18"/>
<path d="M102.256 66.7695C102.209 66.8607 102.182 66.9605 102.176 67.0626C102.169 67.1647 102.184 67.267 102.219 67.3632C102.253 67.4595 102.307 67.5477 102.377 67.6223C102.447 67.6969 102.532 67.7565 102.626 67.7972L109.069 70.1405C109.501 69.7499 109.922 69.3491 110.334 68.9277L103.139 66.3173C102.962 66.272 102.775 66.293 102.612 66.3763C102.449 66.4596 102.323 66.5994 102.256 66.7695Z" fill="#EF7F18"/>
<path d="M94.9689 71.5485C94.8148 71.9596 94.6195 72.4735 94.9689 72.5763L101.896 75.1045C102.502 74.7859 103.098 74.4365 103.684 74.0768L95.8939 70.8086C95.5856 70.7469 95.1539 71.1375 94.9689 71.5485Z" fill="#EF7F18"/>
<path d="M112.812 51.5709C119.412 33.4363 113.24 14.5412 99.0254 9.36765C84.8111 4.19406 67.9374 14.701 61.3369 32.8356C54.7365 50.9703 60.9087 69.8653 75.1231 75.0389C89.3374 80.2125 106.211 69.7055 112.812 51.5709Z" fill="#FFCB48"/>
<path d="M89.378 248.298C89.9844 246.243 86.9834 246.479 85.3287 245.801C85.8118 246.171 86.264 246.675 85.4521 246.829C84.2496 247.055 81.7214 246.448 81.0328 245.534C80.7182 246.176 80.5364 246.875 80.4984 247.589C80.4367 248.381 88.9566 249.737 89.378 248.298Z" fill="#3B2B5B"/>
<path d="M85.4519 246.829C86.2638 246.675 85.8116 246.171 85.3286 245.801C84.3008 245.38 83.4376 245.072 83.2731 244.969C83.1284 244.888 83.0012 244.779 82.8989 244.648C82.7965 244.518 82.7211 244.368 82.677 244.208L82.1529 244.044C82.1529 244.044 81.1252 245.359 81.0532 245.534C81.7212 246.49 84.2495 247.055 85.4519 246.829Z" fill="#FF97A6"/>
<path d="M50.6426 248.432C51.249 246.376 48.248 246.602 46.5934 245.924C47.0764 246.294 47.5286 246.798 46.7167 246.952C45.5143 247.178 42.986 246.572 42.3077 245.657C41.9865 246.297 41.8011 246.997 41.763 247.712C41.7014 248.545 50.2213 249.871 50.6426 248.432Z" fill="#3B2B5B"/>
<path d="M46.7166 246.952C47.5285 246.798 47.0762 246.294 46.5932 245.924C45.5655 245.513 44.7022 245.205 44.5377 245.092C44.3919 245.012 44.2639 244.904 44.1614 244.773C44.0589 244.642 43.9842 244.492 43.9417 244.331L43.4175 244.177C43.4175 244.177 42.3898 245.482 42.3281 245.657C42.9859 246.572 45.5141 247.178 46.7166 246.952Z" fill="#FF97A6"/>
<path d="M60.9818 145.772C58.1949 148.077 55.9464 150.964 54.3941 154.23C49.3787 164.045 42.4826 233.561 42.6779 244.671C42.6779 246.171 44.5175 245.061 44.5175 245.061L69.5737 170.828L78.9158 194.908L81.1357 244.65H82.9342C82.9342 244.65 91.0841 210.149 91.6083 194.589C92.0296 181.887 88.2168 151.25 86.7985 148.341C83.4481 147.221 66.3569 145.957 60.9818 145.772Z" fill="#6291AB"/>
<path d="M78.9158 194.939C79.2018 197.958 79.3356 200.991 79.3167 204.024L81.1357 244.681H82.9343C82.9343 244.681 91.0842 210.18 91.6083 194.62C92.0297 181.917 88.2168 151.28 86.7986 148.372C85.37 147.889 81.7627 153.696 77.3331 153.254C75.5654 153.079 69.5737 170.879 69.5737 170.879L78.9158 194.939Z" fill="#5C8AA4"/>
<path d="M100.231 80.8302C99.8099 80.6143 93.5922 81.3646 92.9138 83.2248C92.5952 84.1189 102.492 105.999 102.492 105.999C103.263 105.64 99.4708 109.083 90.8789 113.05C87.4885 114.429 83.9555 115.429 80.3447 116.03C75.3191 116.688 65.9564 116.41 62.4107 115.187C55.5558 112.813 53.6236 101.066 53.6236 101.066C53.6236 101.066 72.5442 84.7047 72.462 81.2824C72.462 80.1519 67.3233 74.9618 63.8907 75.897C60.6122 76.7912 43.6443 92.3408 45.3298 101.827C46.3575 107.633 53.2433 119.144 59.7181 123.522C60.0161 127.859 57.1282 134.149 54.0039 143.183C50.8796 152.217 49.1427 164.652 49.0502 165.125C53.6236 167.417 87.2099 165.7 89.5326 164.909C89.5326 164.837 89.9026 141.836 91.0742 135.105C91.8758 130.459 92.6261 124.879 93.068 121.426C99.3372 118.24 107.908 113.574 111.105 109.494C117.96 100.809 103.551 82.5259 100.231 80.8302Z" fill="#233650"/>
<path d="M74.075 113.481C74.075 113.481 73.4173 117.13 73.7975 117.52C74.146 117.83 74.5996 117.995 75.0657 117.982C75.5317 117.968 75.9751 117.777 76.3052 117.448C77.0657 116.503 76.1819 113.337 76.1819 113.337L74.075 113.481Z" fill="#F4B4AE"/>
<path d="M73.7153 116.132C74.6532 116.462 75.6756 116.462 76.6135 116.132C76.5974 115.475 76.5182 114.821 76.3772 114.179L73.9414 114.292C73.8592 114.837 73.7667 115.525 73.7153 116.132Z" fill="#C95D77"/>
<path d="M76.5521 105.691C74.8871 104.263 71.732 106.842 71.1565 107.5C70.5809 108.158 70.807 109.319 70.992 110.151C71.177 110.984 72.7186 114.468 75.4627 114.139C82.0093 113.368 76.5521 105.691 76.5521 105.691Z" fill="#F4B4AE"/>
<path d="M71.1464 76.8316C70.8586 76.7596 71.2081 75.7422 71.1464 75.4338C71.1697 75.0359 71.1115 74.6375 70.9754 74.2628C70.8394 73.8882 70.6283 73.5453 70.355 73.2551C69.9566 72.7903 69.6935 72.2251 69.5945 71.621C69.317 70.5932 69.4609 69.8841 69.6459 69.7402C70.2523 69.2675 71.0025 70.4493 71.3725 71.0249C71.8673 71.7704 72.417 72.4781 73.0169 73.142C73.0169 73.142 72.8319 71.3229 73.356 71.4462C73.8802 71.5696 74.5893 74.2931 73.2121 75.3722C72.9156 75.8808 72.6479 76.4058 72.4105 76.9446C72.3591 77.2632 71.6808 76.9138 71.1464 76.8316Z" fill="#F4B4AE"/>
<path d="M95.4725 80.408C95.7705 80.408 95.4725 79.3186 95.5444 79.0205C95.5482 78.6201 95.6341 78.2248 95.7968 77.8589C95.9594 77.4929 96.1953 77.1643 96.4899 76.8931C96.8291 76.5671 97.1516 76.2241 97.456 75.8654C97.6721 75.6272 97.8264 75.3395 97.9052 75.0277C97.9841 74.7159 97.9851 74.3895 97.9082 74.0771C97.432 74.4257 96.9304 74.7383 96.4077 75.0124C95.6254 75.1764 94.8951 75.5292 94.2803 76.0401C94.2803 76.0401 94.9072 74.1799 94.3728 74.2519C93.8384 74.3238 92.3174 77.3351 93.5917 78.4861C93.5917 78.4861 94.0439 79.9763 94.1673 80.4491C94.2906 80.9218 94.9689 80.5005 95.4725 80.408Z" fill="#F4B4AE"/>
<path d="M93.8078 82.9263L93.2117 81.1791C93.1525 80.9988 93.163 80.8028 93.241 80.6298C93.3189 80.4567 93.4588 80.3191 93.6331 80.2439C94.6189 79.8234 95.6554 79.5332 96.7163 79.3806C98.484 79.175 99.1931 81.7752 99.1931 81.7752L93.8078 82.9263Z" fill="#357A5F"/>
<path d="M67.4463 76.9139L69.2346 75.0434C69.3587 74.8964 69.5345 74.8026 69.7258 74.7816C69.9171 74.7606 70.1092 74.8138 70.2623 74.9304C71.1286 75.5441 71.9066 76.2738 72.5747 77.0989C73.6641 78.5069 71.8039 80.4493 71.8039 80.4493L67.4463 76.9139Z" fill="#357A5F"/>
<path d="M100.231 80.8295C99.8097 80.6137 93.5919 81.364 92.9136 83.2242C92.595 84.1183 102.492 105.999 102.492 105.999C103.263 105.639 99.4706 109.082 90.8787 113.049C87.9215 114.255 84.855 115.174 81.7216 115.793C81.1975 115.906 80.3445 116.029 80.3445 116.029C80.3445 116.029 82.2458 128.496 81.3722 133.059C76.6652 156.697 71.2593 166.142 71.2593 166.142L73.3147 166.08C81.3825 165.792 88.556 165.258 89.5838 164.908C89.5838 164.836 89.9537 141.836 91.1254 135.104C91.927 130.459 92.6772 124.878 93.1192 121.425C99.3883 118.239 107.96 113.573 111.156 109.493C117.959 100.809 103.551 82.5253 100.231 80.8295Z" fill="#2B3747"/>
<path d="M72.5644 114.735C71.5789 114.278 70.7315 113.569 70.1081 112.679C69.8406 112.333 69.613 111.957 69.4298 111.559L69.2756 111.374C69.2756 111.374 69.2243 111.374 69.1934 111.374C68.3057 110.94 67.5657 110.254 67.066 109.401C66.6132 108.499 66.3885 107.5 66.4118 106.491C66.4351 105.482 66.7056 104.495 67.1996 103.615C68.2273 101.683 70.0362 101.292 71.8861 101.015C72.8083 100.837 73.6812 100.461 74.4451 99.915C75.1337 99.4114 75.5859 98.6817 76.2539 98.1575L76.5726 97.9314C76.8719 97.6245 77.2597 97.4189 77.6817 97.3433C78.1037 97.2678 78.5388 97.3261 78.9261 97.51C79.4625 97.8023 79.9197 98.2207 80.2581 98.7293C80.5965 99.2378 80.806 99.8212 80.8685 100.429C81.2693 103.851 79.9949 105.989 76.9939 106.225C76.5314 106.318 74.2499 106.225 73.7977 106.39C73.1826 106.474 72.6002 106.718 72.1081 107.096C71.616 107.475 71.2313 107.975 70.992 108.548C70.8524 109.07 70.8524 109.619 70.992 110.141C70.992 110.274 71.0947 110.418 71.1358 110.552L71.2078 110.737C71.5116 111.608 72.0527 112.377 72.7699 112.957C73.0971 113.237 73.4829 113.441 73.899 113.553C74.3151 113.665 74.7511 113.683 75.1748 113.604C76.1509 113.506 77.0643 113.078 77.7647 112.392C78.1963 111.878 78.42 111.222 78.3916 110.552C78.2057 109.37 77.8599 108.219 77.3639 107.13C78.1905 108.764 78.9114 110.449 79.5221 112.176C79.6584 112.5 79.7148 112.853 79.6866 113.204C79.6989 113.313 79.6989 113.423 79.6866 113.532C79.3988 114.406 77.8778 115.105 77.107 115.393C76.3477 115.622 75.5475 115.681 74.7627 115.568C73.9779 115.454 73.2275 115.17 72.5644 114.735Z" fill="#3B2B5B"/>
<path d="M70.1084 112.648C69.8515 112.299 69.5843 111.939 69.3376 111.569L69.1732 111.394H69.2657C68.4066 111.111 67.6539 110.574 67.1074 109.853C66.5763 109.119 66.2244 108.27 66.0797 107.376C65.9416 106.477 65.9976 105.558 66.244 104.683C66.4905 103.807 66.9215 102.994 67.5083 102.299C68.149 101.625 68.9635 101.141 69.8618 100.901C70.7045 100.613 71.6398 100.613 72.3592 100.398C73.1346 100.196 73.8639 99.8474 74.5071 99.3698C75.0957 98.7435 75.7465 98.1787 76.4495 97.6844C76.7793 97.378 77.1977 97.184 77.6446 97.1305C78.0915 97.0769 78.5439 97.1665 78.9367 97.3863C78.5543 97.2472 78.1392 97.2247 77.744 97.3216C77.3488 97.4186 76.9913 97.6307 76.7168 97.931C76.0949 98.4949 75.5144 99.1028 74.9799 99.7501C74.3146 100.36 73.5209 100.813 72.6572 101.076C72.2365 101.203 71.8071 101.299 71.3725 101.364C70.9736 101.438 70.579 101.534 70.1906 101.651C69.4453 101.869 68.7691 102.277 68.2277 102.833C67.7187 103.441 67.3356 104.143 67.101 104.9C66.8663 105.657 66.7846 106.453 66.8608 107.242C66.9257 108.041 67.1717 108.814 67.5802 109.503C68.0335 110.166 68.6308 110.718 69.3274 111.117H69.4198L69.5535 111.312C69.759 111.682 69.9543 112.073 70.1495 112.473L70.1084 112.648Z" fill="#7F65C1"/>
<path d="M243.678 222.003C254.149 222.003 262.638 220.476 262.638 218.592C262.638 216.709 254.149 215.182 243.678 215.182C233.206 215.182 224.718 216.709 224.718 218.592C224.718 220.476 233.206 222.003 243.678 222.003Z" fill="#D1E6E6"/>
<path d="M180.078 218.332C180.078 220.332 174.398 222.003 167.398 222.003C160.398 222.003 154.728 220.362 154.728 218.332C154.728 216.302 160.398 214.672 167.398 214.672C174.398 214.672 180.078 216.312 180.078 218.332Z" fill="#D1E6E6"/>
<path d="M237.168 194.962C236.748 194.192 238.608 191.773 239.168 191.263C239.008 191.513 238.698 192.032 239.078 192.082C239.431 192.053 239.77 191.93 240.06 191.726C240.35 191.522 240.581 191.245 240.728 190.922C240.954 191.3 241.126 191.707 241.238 192.133C241.428 192.603 237.778 196.062 237.168 194.962Z" fill="#30193B"/>
<path d="M239.828 189.362C239.693 190.061 239.454 190.735 239.118 191.362C238.958 191.602 238.418 192.563 238.788 192.623C239.328 192.713 240.598 191.492 240.788 190.892C240.715 190.839 240.655 190.77 240.612 190.69C240.569 190.611 240.544 190.523 240.538 190.433C240.538 190.093 240.668 189.573 240.538 189.433C240.408 189.293 240.028 189.402 239.828 189.362Z" fill="#F4B4AE"/>
<path d="M253.758 176.592C254.758 175.722 253.328 174.942 252.818 174.112C252.908 174.432 252.928 174.832 252.508 174.662C252.114 174.471 251.77 174.191 251.503 173.844C251.235 173.497 251.052 173.092 250.968 172.662C250.586 172.899 250.247 173.2 249.968 173.552C249.668 173.962 253.048 177.202 253.758 176.592Z" fill="#30193B"/>
<path d="M252.508 174.662C252.928 174.832 252.908 174.432 252.818 174.112C252.508 173.592 252.228 173.172 252.178 173.062C252.141 172.974 252.121 172.879 252.121 172.782C252.121 172.686 252.141 172.591 252.178 172.502L251.998 172.262C251.998 172.262 251.078 172.632 250.998 172.692C251.083 173.114 251.264 173.51 251.526 173.852C251.787 174.193 252.123 174.47 252.508 174.662Z" fill="#F4B4AE"/>
<path d="M245.638 130.362C244.009 131.928 242.74 133.828 241.918 135.932C239.248 142.272 238.618 183.002 239.248 189.932C239.308 190.562 240.038 190.422 240.448 190.252C240.552 190.212 240.646 190.148 240.72 190.064C240.795 189.981 240.849 189.881 240.878 189.772L255.578 142.062L265.778 151.233L251.118 172.492L252.578 172.842C252.578 172.842 274.738 159.262 274.348 149.552C274.028 141.622 262.458 129.192 261.438 127.422C259.318 126.872 248.998 130.232 245.638 130.362Z" fill="#313E51"/>
<path d="M219.928 100.213C219.853 100.247 219.769 100.257 219.688 100.241C219.607 100.225 219.534 100.183 219.478 100.123C219.188 99.7925 218.478 99.0325 217.958 98.4325C217.958 98.4325 217.118 97.4925 217.268 96.8325C217.268 96.8325 217.438 96.6726 217.608 97.0126C217.608 97.0126 217.298 96.0125 217.528 95.8325C217.758 95.6525 218.038 95.9925 218.038 95.9925C218.05 95.9224 218.09 95.8599 218.148 95.8187C218.206 95.7775 218.278 95.7609 218.348 95.7725C218.965 96.3156 219.439 97.0025 219.728 97.7725C219.728 97.7725 219.528 97.0626 219.728 97.0726C219.928 97.0826 220.428 98.4525 220.318 98.9025C220.337 99.1687 220.377 99.4328 220.438 99.6925C220.578 99.8225 220.208 100.063 219.928 100.213Z" fill="#F4B4AE"/>
<path d="M256.088 83.7125C256.165 83.6815 256.229 83.6248 256.27 83.5518C256.31 83.4789 256.323 83.3943 256.308 83.3125C256.248 82.8825 256.098 81.8625 255.988 81.0525C255.988 81.0525 255.818 79.8125 255.218 79.4925C255.218 79.4925 254.978 79.4925 255.128 79.8825C255.128 79.8825 254.598 79.0225 254.278 79.0625C253.958 79.1025 254.078 79.5625 254.078 79.5625C254.048 79.5428 254.015 79.5295 253.979 79.5234C253.944 79.5173 253.908 79.5185 253.873 79.5269C253.839 79.5354 253.806 79.5509 253.778 79.5725C253.749 79.5941 253.725 79.6213 253.708 79.6525C253.717 80.4611 253.927 81.2548 254.318 81.9625C254.318 81.9625 253.898 81.3525 253.758 81.5425C253.618 81.7325 254.358 82.9625 254.758 83.1625C254.948 83.3507 255.122 83.5548 255.278 83.7725C255.398 83.9225 255.818 83.8425 256.088 83.7125Z" fill="#F4B4AE"/>
<path d="M273.068 150.402C273.368 153.602 267.388 159.002 265.068 161.532C262.298 164.532 251.648 172.622 251.648 172.622L252.568 172.842C252.568 172.842 274.728 159.262 274.338 149.552C274.018 141.622 262.448 129.192 261.428 127.422C260.518 127.182 258.158 127.652 255.428 128.282C251.838 129.132 272.358 143.062 273.068 150.402Z" fill="#2B3747"/>
<path d="M245.198 107.893C244.29 107.97 243.376 107.868 242.508 107.593C241.508 107.143 240.058 106.303 240.108 104.763C240.158 102.853 242.108 102.083 242.618 101.473C243.268 100.693 242.878 100.203 243.328 99.9326C244.508 99.2326 246.468 102.053 246.928 103.483C247.388 104.913 247.228 107.273 245.198 107.893Z" fill="#3B2B5B"/>
<path d="M242.508 107.592C241.677 107.364 240.935 106.89 240.378 106.233C240.097 105.872 239.927 105.438 239.888 104.983C239.858 104.526 239.94 104.069 240.128 103.652C240.545 102.883 241.168 102.246 241.928 101.812C242.274 101.625 242.566 101.354 242.778 101.022C242.882 100.849 242.956 100.66 242.998 100.462C243.014 100.356 243.044 100.251 243.088 100.152C243.144 100.057 243.228 99.9804 243.328 99.9325C243.252 100.001 243.194 100.087 243.157 100.182C243.121 100.278 243.107 100.381 243.118 100.483C243.109 100.701 243.065 100.917 242.988 101.122C242.897 101.326 242.775 101.515 242.628 101.682C242.472 101.831 242.309 101.971 242.138 102.103C241.477 102.548 240.932 103.144 240.548 103.842C240.384 104.187 240.309 104.567 240.33 104.948C240.351 105.329 240.467 105.698 240.668 106.022C241.155 106.678 241.784 107.214 242.508 107.592Z" fill="#7F65C1"/>
<path d="M258.398 82.3625C258.291 82.2636 258.165 82.1892 258.027 82.1443C257.888 82.0994 257.742 82.0851 257.598 82.1025C256.668 82.5003 255.828 83.082 255.128 83.8125C255.011 83.9279 254.924 84.0705 254.875 84.2275C254.826 84.3844 254.817 84.551 254.848 84.7125C254.998 85.4488 255.219 86.1688 255.508 86.8625C256.408 88.8025 260.078 96.9925 260.078 96.9925C260.428 96.5925 259.078 99.5125 255.218 103.943C253.625 105.58 251.858 107.039 249.948 108.293C247.238 109.933 240.398 112.573 238.068 112.763C234.527 112.861 230.987 112.525 227.528 111.763C227.528 111.763 223.628 103.683 222.718 101.763C222.366 101.099 221.955 100.47 221.488 99.8825C221.39 99.7513 221.258 99.6488 221.107 99.5855C220.956 99.5222 220.79 99.5005 220.628 99.5225C219.618 99.5863 218.631 99.8551 217.728 100.313C217.622 100.41 217.539 100.53 217.484 100.663C217.429 100.795 217.403 100.939 217.408 101.082C217.508 103.202 218.328 112.473 224.558 115.473C228.178 117.203 235.308 118.213 240.048 117.743C242.154 121.831 244.02 126.038 245.638 130.343C248.638 130.703 260.328 128.443 261.458 127.403C261.458 127.353 261.908 120.613 260.888 116.483C260.178 113.633 259.208 110.252 258.588 108.172C261.368 104.772 264.008 100.173 264.808 97.0625C266.578 90.3825 259.948 83.8025 258.398 82.3625Z" fill="#7E8FA5"/>
<path d="M245.578 107.992C245.578 107.992 246.128 110.242 246.438 110.372C246.716 110.462 247.017 110.442 247.28 110.318C247.544 110.193 247.75 109.973 247.858 109.702C248.048 108.972 246.758 107.402 246.758 107.402L245.578 107.992Z" fill="#F4B4AE"/>
<path d="M246.008 109.603C246.628 109.559 247.213 109.305 247.668 108.883C247.497 108.51 247.289 108.155 247.048 107.823L245.678 108.503C245.768 108.823 245.888 109.243 246.008 109.603Z" fill="#C95D77"/>
<path d="M246.028 103.582C244.708 103.182 242.918 105.072 242.748 105.582C242.578 106.092 243.008 106.722 243.328 107.142C243.648 107.562 245.328 109.142 246.878 108.302C249.738 106.742 246.028 103.582 246.028 103.582Z" fill="#F4B4AE"/>
<path d="M258.398 82.3625C258.292 82.2636 258.165 82.1892 258.027 82.1443C257.889 82.0994 257.742 82.0851 257.598 82.1025C256.668 82.5003 255.828 83.082 255.128 83.8125C255.011 83.9279 254.924 84.0705 254.875 84.2275C254.827 84.3844 254.817 84.551 254.848 84.7125C254.998 85.4488 255.219 86.1688 255.508 86.8625C256.408 88.8025 260.078 96.9925 260.078 96.9925C260.428 96.5925 259.078 99.5125 255.218 103.943C253.991 105.174 252.678 106.317 251.288 107.362C253.201 109.968 254.664 112.875 255.618 115.963C256.998 121.202 255.618 129.142 255.618 129.142C255.618 129.142 260.538 128.292 261.478 127.422C261.478 127.372 261.928 120.633 260.908 116.503C260.198 113.653 259.228 110.273 258.608 108.193C261.388 104.793 264.028 100.192 264.828 97.0825C266.578 90.3825 259.948 83.8025 258.398 82.3625Z" fill="#7E8FA5"/>
<path d="M171.038 187.772C170.578 187.072 172.128 184.632 172.648 184.102C172.528 184.352 172.278 184.862 172.648 184.882C172.977 184.823 173.285 184.678 173.542 184.462C173.798 184.246 173.993 183.967 174.108 183.652C174.35 183.985 174.549 184.349 174.698 184.732C174.858 185.172 171.718 188.782 171.038 187.772Z" fill="#30193B"/>
<path d="M172.878 181.142C173.015 182.179 172.912 183.232 172.578 184.222C172.448 184.472 172.018 185.422 172.368 185.452C172.888 185.452 173.978 184.222 174.098 183.652C174.025 183.606 173.963 183.544 173.917 183.472C173.87 183.399 173.84 183.318 173.828 183.232C173.779 182.483 173.779 181.732 173.828 180.982C173.888 180.592 173.068 181.162 172.878 181.142Z" fill="#F4B4AE"/>
<path d="M183.258 170.253C183.538 170.113 183.598 168.382 183.458 167.462C183.458 167.782 183.298 168.142 182.978 167.842C182.703 167.537 182.503 167.172 182.392 166.777C182.281 166.382 182.263 165.966 182.338 165.562C181.919 165.637 181.517 165.783 181.148 165.992C180.748 166.212 182.458 170.623 183.258 170.253Z" fill="#30193B"/>
<path d="M182.978 167.842C183.298 168.142 183.408 167.782 183.458 167.462C183.358 166.902 183.148 166.152 183.138 166.042C183.138 165.742 183.588 165.222 183.588 165.222L183.018 164.782C183.018 164.782 182.728 165.532 182.338 165.562C182.263 165.966 182.281 166.382 182.392 166.777C182.503 167.172 182.704 167.537 182.978 167.842Z" fill="#F4B4AE"/>
<path d="M171.068 125.822C169.674 127.439 168.651 129.34 168.068 131.392C166.068 137.602 171.698 176.682 172.888 183.162C172.998 183.752 173.188 183.282 173.548 183.102C173.748 183.002 173.818 183.442 173.858 183.232L181.318 136.562L194.318 144.062L182.718 165.432L183.038 166.382C183.038 166.382 202.698 149.512 202.858 140.652C202.998 133.132 189.288 123.562 188.168 121.982C186.058 121.642 174.228 125.412 171.068 125.822Z" fill="#F4B4AE"/>
<path d="M172.818 122.282C172.818 122.282 167.598 127.283 167.688 133.853C167.878 146.733 162.338 148.762 159.358 150.032C156.378 151.302 176.408 166.132 194.778 141.932C196.258 139.982 200.048 138.062 203.228 137.052C203.228 137.052 190.358 120.052 185.468 118.622C180.578 117.192 172.818 122.282 172.818 122.282Z" fill="#313E51"/>
<path d="M146.578 99.9025C146.516 99.9488 146.44 99.9738 146.363 99.9738C146.285 99.9738 146.21 99.9488 146.148 99.9025C145.848 99.6225 145.148 98.9625 144.558 98.4425C144.558 98.4425 143.688 97.6325 143.768 96.9925C143.768 96.9925 143.918 96.8325 144.108 97.1325C144.108 97.1325 143.738 96.2525 143.938 96.0325C144.138 95.8125 144.438 96.1425 144.438 96.1425C144.438 96.1083 144.445 96.0744 144.459 96.0432C144.472 96.0119 144.493 95.984 144.518 95.9613C144.544 95.9385 144.574 95.9215 144.607 95.9114C144.639 95.9013 144.674 95.8982 144.708 95.9025C145.327 96.3519 145.83 96.9413 146.178 97.6225C146.178 97.6225 145.918 96.9725 146.178 96.9625C146.438 96.9525 146.958 98.2025 146.888 98.6325C146.932 98.8838 146.995 99.1312 147.078 99.3725C147.158 99.4825 146.868 99.7625 146.578 99.9025Z" fill="#F4B4AE"/>
<path d="M178.988 74.6925C179.066 74.6781 179.137 74.6393 179.191 74.5818C179.245 74.5242 179.279 74.4509 179.288 74.3725C179.288 73.9625 179.428 72.9925 179.508 72.2325C179.508 72.2325 179.628 71.0425 179.148 70.6125C179.148 70.6125 178.928 70.6125 178.988 70.9525C178.988 70.9525 178.688 70.0425 178.388 70.0025C178.088 69.9625 178.088 70.4125 178.088 70.4125C178.065 70.3883 178.037 70.3691 178.006 70.3559C177.975 70.3428 177.942 70.336 177.908 70.336C177.874 70.336 177.841 70.3428 177.81 70.3559C177.779 70.3691 177.751 70.3883 177.728 70.4125C177.547 71.155 177.547 71.93 177.728 72.6725C177.728 72.6725 177.488 72.0225 177.308 72.1625C177.128 72.3025 177.538 73.6125 177.878 73.8925C178.013 74.1042 178.127 74.3286 178.218 74.5625C178.308 74.7325 178.708 74.7525 178.988 74.6925Z" fill="#F4B4AE"/>
<path d="M183.358 152.423C183.358 152.423 188.768 150.203 194.778 141.933C196.208 139.933 200.048 138.063 203.228 137.053C203.228 137.053 190.358 120.053 185.468 118.623C183.848 118.143 179.918 121.423 178.048 121.963C176.178 122.503 184.608 126.143 186.048 134.963C188.118 147.063 183.358 152.423 183.358 152.423Z" fill="#2B3747"/>
<path d="M167.628 97.9025C168.228 98.0125 167.628 95.4325 171.098 94.5325C173.658 93.8625 175.738 97.2925 173.748 99.9525C173.748 99.9525 176.618 102.292 174.748 108.902C174.748 108.902 174.228 120.672 169.568 123.312C164.908 125.952 156.568 126.433 155.098 117.763C153.628 109.093 160.448 108.453 160.448 108.453C160.448 108.453 159.718 105.522 162.618 105.182C162.578 105.182 161.008 96.7925 167.628 97.9025Z" fill="#FACF5A"/>
<path d="M155.088 117.762L154.878 116.252C154.878 115.752 154.878 115.252 154.878 114.732C154.915 113.697 155.152 112.678 155.578 111.732C156.039 110.795 156.726 109.987 157.578 109.382C158.436 108.782 159.422 108.388 160.458 108.232L160.288 108.472C160.21 108.081 160.186 107.68 160.218 107.282C160.252 106.877 160.375 106.485 160.578 106.132C160.788 105.773 161.097 105.482 161.468 105.292C161.65 105.197 161.841 105.12 162.038 105.062C162.228 105.062 162.428 104.982 162.618 104.942L162.438 105.192C162.203 103.869 162.203 102.515 162.438 101.192C162.57 100.514 162.828 99.8661 163.198 99.2824C163.58 98.6918 164.135 98.2342 164.788 97.9724C165.426 97.7347 166.109 97.6391 166.788 97.6924C166.959 97.7026 167.129 97.7226 167.298 97.7524H167.548C167.658 97.7524 167.658 97.7524 167.688 97.7524C167.773 97.6357 167.834 97.5031 167.868 97.3624C167.916 97.1994 167.972 97.0392 168.038 96.8824C168.28 96.2446 168.705 95.6918 169.258 95.2924C169.81 94.9125 170.432 94.6473 171.088 94.5125C170.451 94.6876 169.854 94.9829 169.328 95.3824C168.813 95.7841 168.43 96.331 168.228 96.9525C168.169 97.1061 168.119 97.263 168.078 97.4224C168.036 97.6079 167.954 97.782 167.838 97.9324C167.788 97.9756 167.724 98.0004 167.658 98.0024H167.508H167.268H166.778C166.132 97.9585 165.486 98.0646 164.888 98.3124C164.306 98.5638 163.815 98.9857 163.478 99.5224C163.141 100.067 162.91 100.671 162.798 101.302C162.568 102.589 162.568 103.906 162.798 105.192C162.807 105.247 162.796 105.302 162.766 105.348C162.737 105.395 162.691 105.428 162.638 105.442C162.468 105.442 162.288 105.502 162.118 105.552C161.95 105.595 161.789 105.659 161.638 105.742C161.325 105.885 161.066 106.123 160.898 106.422C160.718 106.727 160.608 107.069 160.578 107.422C160.548 107.777 160.568 108.134 160.638 108.482C160.647 108.534 160.635 108.587 160.605 108.63C160.575 108.673 160.529 108.703 160.478 108.712C159.503 108.855 158.573 109.218 157.758 109.772C156.937 110.321 156.266 111.067 155.808 111.942L155.508 112.632C155.423 112.865 155.349 113.102 155.288 113.342C155.162 113.825 155.072 114.317 155.018 114.812C155.018 115.312 155.018 115.812 155.018 116.322L155.088 117.762Z" fill="#FFE5B0"/>
<path d="M170.578 125.063C173.398 125.143 182.038 122.343 185.468 118.623C185.468 118.623 186.118 113.553 184.278 109.973C182.548 106.633 182.048 105.973 180.868 104.853C182.576 99.9294 183.913 94.8853 184.868 89.7625C185.868 83.3025 182.028 75.2425 180.428 74.0125C180.32 73.9289 180.195 73.8702 180.062 73.8408C179.929 73.8114 179.791 73.812 179.658 73.8425C178.738 74.1772 177.967 74.8252 177.478 75.6725C177.368 75.9625 178.918 89.5325 178.918 89.5325C178.918 89.5325 177.058 104.333 176.468 104.753C174.008 106.473 167.028 109.753 164.848 110.173C161.527 110.581 158.169 110.581 154.848 110.173C154.848 110.173 150.458 102.893 149.438 101.173C149.059 100.57 148.616 100.01 148.118 99.5025C148.015 99.3859 147.883 99.2991 147.735 99.2516C147.587 99.204 147.429 99.1975 147.278 99.2325C146.33 99.3853 145.422 99.7253 144.608 100.233C144.519 100.337 144.454 100.458 144.414 100.589C144.374 100.719 144.362 100.857 144.378 100.993C144.658 102.993 146.228 111.653 152.378 113.993C155.938 115.313 162.748 115.643 167.178 114.793" fill="#FF5959"/>
<path d="M171.578 104.712C171.827 105.83 172.182 106.922 172.638 107.972C172.742 108.068 172.871 108.133 173.01 108.159C173.149 108.185 173.293 108.172 173.425 108.121C173.557 108.07 173.672 107.983 173.757 107.871C173.843 107.758 173.895 107.623 173.908 107.482C174.028 106.612 172.638 104.272 172.638 104.272L171.578 104.712Z" fill="#F4B4AE"/>
<path d="M172.138 106.882C172.41 106.94 172.692 106.927 172.957 106.842C173.221 106.758 173.46 106.607 173.648 106.402C173.443 105.885 173.206 105.38 172.938 104.892L171.708 105.392C171.828 105.822 171.988 106.392 172.138 106.882Z" fill="#C95D77"/>
<path d="M172.148 99.8926C170.638 99.2726 168.308 101.303 168.048 101.893C167.788 102.483 168.238 103.253 168.568 103.793C168.898 104.333 170.748 106.373 172.638 105.563C176.188 104.063 172.148 99.8926 172.148 99.8926Z" fill="#F4B4AE"/>
<path d="M180.378 74.0625C180.27 73.9788 180.145 73.9202 180.012 73.8908C179.879 73.8614 179.741 73.8619 179.608 73.8925C178.689 74.2272 177.917 74.8751 177.428 75.7225C177.318 76.0125 178.868 89.5825 178.868 89.5825C178.868 89.5825 177.008 104.382 176.418 104.802C175.828 105.222 175.208 105.562 175.208 105.562C175.208 105.562 178.578 107.722 180.068 113.832C181.068 117.902 178.868 122.832 178.868 122.832C179.968 122.365 181.037 121.827 182.068 121.222C183.309 120.507 184.452 119.633 185.468 118.622C185.468 118.622 186.118 113.552 184.278 109.972C182.548 106.632 182.048 105.972 180.868 104.852C182.576 99.9294 183.913 94.8853 184.868 89.7625C185.858 83.3025 181.978 75.2425 180.378 74.0625Z" fill="#FF5959"/>
</g>
<defs>
<linearGradient id="paint0_linear" x1="123.963" y1="-31.9325" x2="123.963" y2="249.47" gradientUnits="userSpaceOnUse">
<stop stop-color="#9CC0BC"/>
<stop offset="1" stop-color="#9CC0BC"/>
</linearGradient>
<clipPath id="clip0">
<path d="M308.525 0H6.10352e-05V249.07H308.525V0Z" fill="white"/>
</clipPath>
</defs>
</svg>
