<svg width="409" height="467" fill="none" xmlns="http://www.w3.org/2000/svg">
  <path fill-rule="evenodd" clip-rule="evenodd"
    d="M22.943 193.036C22.943 86.422 109.367 0 215.971 0 322.576 0 409 86.422 409 193.036v80.115a192.453 192.453 0 0 1-14.874 74.368c-10.446-20.463-26.582-41.076-51.154-59.418 27.319-29.247 31.673-67.015 23.003-95.084 1.85-6.615 1.186-14.614-2.009-22.79a55.276 55.276 0 0 0-18.509-24.032c-12.828-9.307-29.029-10.914-41.109-4.551-15.024-1.672-26.712-1.896-35.579-.654a53.12 53.12 0 0 0-5.092-15.613c-4.559-8.933-11.968-9.727-14.949-9.643-5.465.14-10.791 3.233-15.883 9.213a17.74 17.74 0 0 0-2.196-1.187c-11.379-5.158-23.395 3.943-32.588 12.456a153.788 153.788 0 0 0-7.83 7.783 116.962 116.962 0 0 0-23.544-10.278c-33.916-10.606-65.533 18.809-70.354 25.032a14.495 14.495 0 0 0-3.317 9.587c-5.372 6.242-10.679 16.268-9.94 31.134-20.817 13.203-33.86 35.236-36.15 61.67l-.046.439a15.246 15.246 0 0 0 2.728 11.502 50.489 50.489 0 0 0-1.027 13.147 53.011 53.011 0 0 0 3.634 16.371 74.267 74.267 0 0 0-3.803-1.393l-.158-.056a93.747 93.747 0 0 0-5.606-1.635l-1.196-.299-1.402-.336-1.27-.281-1.243-.261-1.224-.243-1.168-.215-1.149-.206-1.112-.177-1.027-.159-1.14-.159-.804-.112-1.719-.205a83.402 83.402 0 0 0-2.579-.253h-1.252a195.003 195.003 0 0 1-1.42-23.462v-80.115Zm6.326 117.668s10.165 12.091 22.05 13.334c5.12.504 9.716 1.214 13.64 1.943-13.64.869-24.974 1.803-33.869 2.738a194.824 194.824 0 0 1-5.194-21.846 46.948 46.948 0 0 0 3.373 3.831Zm9.733 39.581c11.464-1.056 26.32-2.177 44.23-3.009l-.15.084c-12.239 7.101-22.6 18.445-30.327 28.845a191.596 191.596 0 0 1-13.753-25.92Zm97.392-4.252h-.074c-4.644 0-9.315.037-14.015.122h-.112l-4.559.065a281.875 281.875 0 0 0-19.425 30.143c-6.652 11.849-20.461 19.146-28.646 22.622a194.101 194.101 0 0 0 57.208 45.412 61.124 61.124 0 0 1 1.14-21.211l7.372-32.358a72.64 72.64 0 0 1 1.401-5.158l12.426-39.637h-.738a508.78 508.78 0 0 0-11.978 0Z"
    fill="#64DFA3" />
  <path fill-rule="evenodd" clip-rule="evenodd"
    d="M330.46 428.521a66.402 66.402 0 0 1-7.755 5.448l-6.979 4.13c-4.896 2.896-9.904 5.896-9.904 5.896a191.938 191.938 0 0 1-78.22 21.808c-22.022-22.397-32.168-50.802-30.16-84.646.327-5.578.953-11.138 1.897-16.651.355-1.794.794-3.719 1.289-5.821a31.894 31.894 0 0 1 5.064-11.213c8.671-12.147 26.516-18.379 50.453 3.112a131.039 131.039 0 0 1 16.042 17.641 76.883 76.883 0 0 0-2.653 10.904c-8.138 2.402-28.291 9.811-34.028 25.35a5.046 5.046 0 0 0 9.465 3.486c4.297-11.671 23.255-18.333 30.196-19.922a5.037 5.037 0 0 0 3.906-4.41c0-.056.112-1.074.392-2.691 1.103-6.466 4.887-22.771 15.454-27.023a13.956 13.956 0 0 1 4.522-1.009c.177-.009.364-.009.542 0 2.494-.074 4.326.327 5.176 1.262.243.271.43.588.551.934.206.598.299 1.233.262 1.869a5.022 5.022 0 0 0 2.634 5.176 5.086 5.086 0 0 0 5.784-.747c.644-.598 6.503-5.663 12.865-1.234 5.643 3.916 3.635 9.12 2.915 10.578a5.12 5.12 0 0 0 .935 6.129 4.869 4.869 0 0 0 5.932.664c.626-.262 3.093-1.075 6.101 1.607.851.738 1.561 3.055 1.243 6.541-.22 2.271-.085 4.825.062 7.595.332 6.303.724 13.724-2.865 21.474 8.203-10.503 12.099-20.426 12.8-28.154.598-6.466-1.028-11.792-4.559-14.95a17.017 17.017 0 0 0-8.624-4.289.069.069 0 0 1-.049-.039.081.081 0 0 1-.007-.035c.14-5.018-1.682-10.886-8.138-15.371a19.694 19.694 0 0 0-7.923-3.327 19.816 19.816 0 0 0-10.716 1.206c-.038.046-.084 0-.084 0a12.827 12.827 0 0 0-1.654-2.28c-3.074-3.364-7.708-4.896-13.762-4.56-1.579.093-3.14.327-4.672.71a.108.108 0 0 1-.075 0 115.304 115.304 0 0 0-10.156-12.969c-15.724-17.258-38.68-30.405-69.746-19.819h-.056a118.704 118.704 0 0 1-22.236-11.614 2.259 2.259 0 0 0-1.243-.374 2.357 2.357 0 0 0-1.644.701 74.266 74.266 0 0 1-48.183 22.304 2.277 2.277 0 0 0-1.999 1.373c-.056.15-.103.299-.131.458a2.346 2.346 0 0 0 .477 2c1.326 1.588 1.691 2.981 1.093 4.139-1.14 2.149-5.989 4.168-14.015 3.513-12.51-1.018-20.686-5.307-25.591-9.044a44.48 44.48 0 0 1-1.27-1.01 2.807 2.807 0 0 0-3.252-.308c-.57.327-1.018.85-1.242 1.467a.07.07 0 0 1-.066.047h.047a3.017 3.017 0 0 0-.13 1.551v.271c-.907.29-3.206-.262-6.14-1.579a42.316 42.316 0 0 1-14.014-10.55c-18.35-21.023-12.94-38.964-9.763-45.691a2.408 2.408 0 0 0-.328-2.57 2.38 2.38 0 0 0-2.457-.785c-1.14.299-1.85.15-1.971 0-.122-.149-.392-.551-.196-2.018a7.68 7.68 0 0 1 .019-.121c.03-.194.074-.463.074-.813 1.056-12.176 6.578-39.058 33.878-53.877.047-.019.094 0 .112.046v-.093c.244-.131.504-.258.762-.384l.378-.186a88.67 88.67 0 0 1 2.616-1.093v.025a.064.064 0 0 1 .047-.044A96.184 96.184 0 0 1 109 202.987c12.622-3.223 32.906-5.662 57.927 1.009a6.436 6.436 0 0 0 8.007-5.279c.121-.85 2.522-15.997 13.491-32.816a151.644 151.644 0 0 1 3.569-4.429l.31-.367c.756-.897 1.512-1.795 2.334-2.707a171.48 171.48 0 0 1 12.287-12.586c11.632-10.764 16.406-10.979 18.275-10.148 3.503 1.589 3.279 9.83 3.204 12.54a2.626 2.626 0 0 0 2.103 2.653 2.755 2.755 0 0 0 2.933-1.663c6.363-14.025 11.296-17.847 14.314-18.585a5.3 5.3 0 0 1 4.718 1.234c3.195 2.522 4.261 13.838 4.765 19.276l.159 1.402a3.908 3.908 0 0 0 1.869 2.99 4.373 4.373 0 0 0 3.868.252c7.203-2.943 20.853-3.308 40.567-1.075a17.618 17.618 0 0 0-1.326 1.664c-6.83 9.942-2.159 23.658 11.277 33.423 8.586 6.186 19.172 9.923 27.683 9.923a24.481 24.481 0 0 0 4.205-.336 14.393 14.393 0 0 0 7.68-3.607 73.574 73.574 0 0 1 2.905 12.792c-2.027 6.69-5.652 5.756-5.652 5.756-1.076-.249-1.501-1.201-1.99-2.299l-.075-.168a4.553 4.553 0 0 0-2.168-2.28 4.52 4.52 0 0 0-6.063 2.056c-3.532 7.12-8.129 11.577-13.66 13.24-8.558 2.57-16.986-2.196-17.135-2.289a4.541 4.541 0 0 0-5.998 1.551 4.547 4.547 0 0 0 1.392 6.27 35.19 35.19 0 0 0 16.397 4.298 27.597 27.597 0 0 0 7.848-1.112c6.251-1.85 11.539-5.878 15.809-12.007h.102a9.523 9.523 0 0 0 4.849 1.803c2.542.14 5.036-.663 7.017-2.261.009-.009.019-.009.028-.009.047 0 .084.028.093.074-.289 21.566-8.763 46.701-32.429 66.417-.169.14-.309.308-.43.486a2.346 2.346 0 0 0 .645 3.252c25.562 16.678 44.809 37.16 57.207 60.894a141.342 141.342 0 0 1 4.98 10.568.082.082 0 0 1 0 .065 194.002 194.002 0 0 1-56.432 65.669Zm-173.782-136.58a97.9 97.9 0 0 0 23.358-9.344v.01a2.997 2.997 0 0 0 1.682-3.598 2.966 2.966 0 0 0-1.252-1.775c-.766-.673-4.503-4.121-8.241-11.213a71.872 71.872 0 0 1-6.54-18.865 100.172 100.172 0 0 1-.757-4.065 110.99 110.99 0 0 1-1.373-17.062 3.04 3.04 0 0 0-1.943-2.803l-.178-.075a77.185 77.185 0 0 0-18.34-4.139c-12.118-1.261-22.863.645-31.356 5.504a.074.074 0 0 1-.103 0v.074a38.492 38.492 0 0 0-3.391 2.205l-.159.103c-10.081 7.429-15.547 18.305-14.949 29.854.645 12.568 8.119 23.939 20.499 31.19a49.16 49.16 0 0 0 25.114 6.401 72.136 72.136 0 0 0 17.929-2.402Zm110.651-92.056c6.316-4.289 10.37-11.101 12.071-20.23a4.673 4.673 0 0 0-2.803-5.298 5.184 5.184 0 0 0-.822-.224 4.532 4.532 0 0 0-5.27 3.663c-1.205 6.737-3.98 11.633-8.222 14.548-6.288 4.322-14.162 3.202-15.215 3.052-.068-.009-.107-.015-.117-.015a4.546 4.546 0 0 0-5.176 3.467 4.538 4.538 0 0 0 3.411 5.438c1.756.308 3.541.458 5.325.439a29.905 29.905 0 0 0 16.818-4.84Zm-103.213-9.017c-29.571-6.597-52.873-1.943-67.27 3.149-.02.009-.029.009-.047.009-.047-.009-.075-.046-.066-.084 1.215-15.875 12.1-21.64 12.66-21.921a2.02 2.02 0 0 0-.766-3.821 5.313 5.313 0 0 1-1.962-.495c.112-.225.243-.43.402-.617a80.548 80.548 0 0 1 18.088-14.128c16.705-9.634 29.589-8.727 37.456-6.261a104.68 104.68 0 0 1 18.78 7.933l.009.01c.028.028.019.074-.009.103a107.382 107.382 0 0 0-17.182 36.067c-.009.047-.056.065-.093.056Z"
    fill="#fff" />
  <path fill-rule="evenodd" clip-rule="evenodd"
    d="M342.97 288.101c27.282-29.265 31.673-67.033 23.115-95.131 1.869-6.615 1.187-14.613-2.009-22.789a55.277 55.277 0 0 0-18.508-24.033c-12.866-9.344-29.067-10.914-41.11-4.55-15.061-1.673-26.712-1.869-35.579-.654a53.38 53.38 0 0 0-5.101-15.595c-4.597-8.933-12.006-9.727-14.949-9.643-5.503.14-10.828 3.233-15.883 9.213a17.74 17.74 0 0 0-2.196-1.187c-11.38-5.158-23.357 3.943-32.588 12.455a158.022 158.022 0 0 0-7.83 7.784 116.89 116.89 0 0 0-23.545-10.278c-33.878-10.606-65.532 18.809-70.353 25.032a14.496 14.496 0 0 0-3.317 9.587c-5.372 6.242-10.679 16.268-9.94 31.134-20.817 13.165-33.86 35.198-36.15 61.67l-.046.439a15.246 15.246 0 0 0 2.728 11.502 50.493 50.493 0 0 0-1.028 13.147 53.191 53.191 0 0 0 3.616 16.492 74.355 74.355 0 0 0-2.793-1.033h-.002c-.336-.119-.672-.238-1.007-.359l-.16-.056a100.194 100.194 0 0 0-20.012-4.289 83.345 83.345 0 0 0-2.579-.252H23.605s-3.831 2.438 2.289 10.334a46.929 46.929 0 0 0 3.373 3.831s10.174 12.091 22.059 13.334c5.12.532 9.67 1.214 13.631 1.943a972.599 972.599 0 0 0-33.869 2.738c-13.92 1.411-21.834 2.616-23.03 2.803a11.082 11.082 0 0 0 3.457 21.734c.024 0 .237-.03.637-.087 2.423-.342 11.668-1.649 26.878-3.052 11.464-1.056 26.32-2.178 44.23-3.009l-.15.084c-12.239 7.101-22.6 18.445-30.327 28.845a168.007 168.007 0 0 0-15.192 24.471s1.57 9.867 25.526.692c0 0 2.616-.794 6.484-2.439 8.184-3.467 21.993-10.764 28.646-22.612a282.034 282.034 0 0 1 19.424-30.144l4.671-.056c8.774-.121 17.481-.168 26.058-.121h.738l-12.426 39.627a72.64 72.64 0 0 0-1.401 5.158l-7.372 32.358a61.148 61.148 0 0 0-1.14 21.211 192.117 192.117 0 0 0 89.189 21.808c2.551 0 5.083-.065 7.615-.158l2.037-.075 1.98-.122c-22.021-22.425-32.168-50.802-30.159-84.646.336-5.578.981-11.138 1.934-16.651a212.58 212.58 0 0 1 1.289-5.821 31.894 31.894 0 0 1 5.064-11.213c8.661-12.147 26.507-18.379 50.453 3.112a131.294 131.294 0 0 1 15.986 17.641 77.557 77.557 0 0 0-2.756 11.054c-8.138 2.401-28.291 9.811-34.028 25.35-.878 2.644.542 5.503 3.186 6.382a5.056 5.056 0 0 0 6.279-2.897c4.298-11.671 23.255-18.333 30.197-19.921a5.04 5.04 0 0 0 3.905-4.41c0-.057.112-1.075.392-2.692 1.103-6.484 4.887-22.771 15.454-27.022a13.93 13.93 0 0 1 4.522-1.009 4.9 4.9 0 0 1 .542 0c2.494-.075 4.326.364 5.176 1.261.243.271.43.589.551.935.206.598.299 1.233.262 1.868a5.023 5.023 0 0 0 2.635 5.177 5.086 5.086 0 0 0 5.783-.748c.645-.598 6.54-5.662 12.865-1.233 5.606 3.915 3.635 9.12 2.915 10.577a5.122 5.122 0 0 0 .935 6.13 4.868 4.868 0 0 0 5.933.663c.626-.271 3.092-1.074 6.101 1.607.85.757 1.56 3.075 1.242 6.541-.607 6.662-4.615 15.988-13.304 26.023a4.246 4.246 0 0 0 .364 5.999c.402.355.86.626 1.355.813h.121a6.776 6.776 0 0 0 7.419-2.206c9.072-11.091 13.342-21.64 14.08-29.751.598-6.54-1.028-11.838-4.56-14.95a17.137 17.137 0 0 0-8.689-4.307c.159-5.027-1.644-10.923-8.128-15.427a19.211 19.211 0 0 0-18.686-2.093 12.632 12.632 0 0 0-1.682-2.336c-3.074-3.364-7.708-4.896-13.763-4.56a25.398 25.398 0 0 0-4.671.719 115.954 115.954 0 0 0-10.184-13.006c-15.734-17.258-38.69-30.415-69.774-19.809a119.293 119.293 0 0 1-22.293-11.633 2.254 2.254 0 0 0-1.243-.374 2.356 2.356 0 0 0-1.644.701 74.283 74.283 0 0 1-48.22 22.294 2.278 2.278 0 0 0-1.999 1.374 2.555 2.555 0 0 0-.131.458c-.159.7.019 1.438.477 1.999 1.326 1.589 1.691 2.981 1.093 4.14-1.112 2.149-5.961 4.167-14.015 3.513-12.529-1.019-20.686-5.28-25.591-9.045a44.496 44.496 0 0 1-1.27-1.009 2.805 2.805 0 0 0-3.252-.309 2.945 2.945 0 0 0-1.392 3.075l-.196.308c-1.028.112-3.195-.411-5.905-1.626a42.033 42.033 0 0 1-14.014-10.559c-18.266-20.93-12.997-38.795-9.81-45.607a2.493 2.493 0 0 0-.16-2.486 2.358 2.358 0 0 0-2.578-.934c-1.14.299-1.766.187-1.972 0-.205-.187-.392-.551-.196-2.018 0-.095.016-.226.036-.395.018-.15.04-.329.058-.54 1.055-12.147 6.54-39.113 33.971-53.923.244-.132.504-.259.761-.384.128-.063.255-.124.379-.186a88.58 88.58 0 0 1 2.616-1.094 95.338 95.338 0 0 1 11.296-3.653c12.604-3.224 32.887-5.663 57.927 1.009a6.44 6.44 0 0 0 8.007-5.279c.121-.851 2.523-15.988 13.501-32.816a145.876 145.876 0 0 1 3.569-4.429 174.091 174.091 0 0 1 2.644-3.074 172.322 172.322 0 0 1 12.333-12.587c11.632-10.764 16.444-10.979 18.275-10.147 3.504 1.588 3.279 9.83 3.205 12.539a2.602 2.602 0 0 0 2.027 2.635 2.569 2.569 0 0 0 2.924-1.457c6.41-14.175 11.362-18.034 14.398-18.772a5.302 5.302 0 0 1 4.718 1.233c3.196 2.523 4.261 13.839 4.765 19.277l.131 1.439a3.911 3.911 0 0 0 1.869 2.99 4.373 4.373 0 0 0 3.868.252c7.203-2.953 20.854-3.308 40.568-1.074a17.331 17.331 0 0 0-1.327 1.663c-6.83 9.904-2.186 23.621 11.277 33.358 8.586 6.204 19.172 9.923 27.684 9.923 1.41.009 2.812-.103 4.204-.337a14.391 14.391 0 0 0 7.68-3.606c.233.71.458 1.429.663 2.158a74.261 74.261 0 0 1 2.252 10.652c-1.963 6.43-5.349 5.83-5.642 5.778a.188.188 0 0 0-.02-.003c-1.076-.251-1.506-1.216-2.001-2.325l-.064-.142a4.54 4.54 0 0 0-5.951-2.392 4.478 4.478 0 0 0-2.28 2.168c-3.532 7.12-8.129 11.577-13.66 13.24-8.558 2.523-16.967-2.215-17.144-2.336a4.54 4.54 0 0 0-6.157 1.822c-1.14 2.093-.458 4.709 1.551 5.999a35.19 35.19 0 0 0 16.397 4.298 27.561 27.561 0 0 0 7.848-1.112c6.269-1.869 11.576-5.905 15.883-12.063a9.689 9.689 0 0 0 4.915 1.869 10.37 10.37 0 0 0 7.138-2.345c-.253 21.603-8.708 46.813-32.43 66.566a2.342 2.342 0 0 0 .215 3.737c25.563 16.679 44.847 37.161 57.208 60.894a139.433 139.433 0 0 1 4.998 10.606c.299-.57.607-1.14.934-1.719.149-.264.284-.529.42-.796.163-.319.326-.64.515-.961a205.033 205.033 0 0 0 5.428-11.83c-10.567-20.463-26.702-41.075-51.275-59.436Zm-178.752-97.177c-29.711-6.634-53.078-1.943-67.485 3.168 1.162-15.877 12.033-21.693 12.66-22.028l.009-.005a2.02 2.02 0 0 0-.766-3.822 5.274 5.274 0 0 1-1.962-.495c.112-.224.243-.43.402-.617a80.576 80.576 0 0 1 18.088-14.128c16.705-9.633 29.59-8.727 37.456-6.26a104.575 104.575 0 0 1 18.855 7.979 107.186 107.186 0 0 0-17.257 36.208Zm16.266 86.413c-.784-.682-4.522-4.13-8.24-11.213a71.835 71.835 0 0 1-6.54-18.865 98.47 98.47 0 0 1-.757-4.065 111 111 0 0 1-1.374-17.062 3.036 3.036 0 0 0-1.943-2.803l-.177-.075a77.192 77.192 0 0 0-18.341-4.139c-12.146-1.262-22.918.654-31.43 5.541a38.282 38.282 0 0 0-3.392 2.205l-.158.103c-10.119 7.419-15.585 18.304-14.95 29.853.645 12.568 8.12 23.94 20.499 31.19a49.154 49.154 0 0 0 25.115 6.401 72.141 72.141 0 0 0 17.929-2.401 97.9 97.9 0 0 0 23.358-9.344 3.005 3.005 0 0 0 1.7-3.495 2.962 2.962 0 0 0-1.299-1.831Zm81.809-84.946c4.241-2.915 7.016-7.811 8.222-14.548h.046c.01-.112.028-.215.056-.327a4.54 4.54 0 0 1 5.401-3.467 4.54 4.54 0 0 1 3.466 5.401c-1.701 9.269-5.774 16.155-12.146 20.482a29.913 29.913 0 0 1-16.818 4.84 29.145 29.145 0 0 1-5.325-.439 4.547 4.547 0 0 1-3.467-5.177 4.548 4.548 0 0 1 5.233-3.728h.002c.238.043 8.672 1.538 15.33-3.037Z"
    fill="#2B3747" />
</svg>
