<svg width="72" height="72" viewBox="0 0 72 72" fill="none" xmlns="http://www.w3.org/2000/svg">
<mask id="mask0_380:188" style="mask-type:alpha" maskUnits="userSpaceOnUse" x="0" y="0" width="72" height="72">
<circle cx="36" cy="36" r="36" fill="#64DFA3"/>
</mask>
<g mask="url(#mask0_380:188)">
<rect x="-10" y="-12" width="87" height="90" fill="#64DFA3"/>
<path d="M61.6173 49.8554C62.7503 46.4616 62.5247 43.142 61.1015 40.4894C59.2075 37.0971 57.5573 36.5815 54.6728 33.9491C54.3381 34.3817 55.7173 32.387 55.6401 32.3854C56.1691 31.2842 56.3737 30.3036 56.4193 29.5035C56.5375 29.4991 56.6549 29.4677 56.7678 29.407C57.5686 28.9675 57.9978 26.8179 57.6532 24.9834C57.101 22.0511 55.6388 20.5644 54.5098 19.8351C54.0215 19.5192 53.5532 19.3145 53.1591 19.1808C53.1928 19.076 53.2076 18.9607 53.1977 18.8384C53.1683 18.5027 52.9586 18.2226 52.5741 18.0042C52.5025 17.9643 44.819 14.4287 39.736 18.5261C37.9668 19.9523 35.5864 22.2886 34.302 25.3102C33.6425 26.8637 33.3569 28.3973 33.4439 29.8994C32.5513 30.4043 32.1237 30.7137 32.0777 30.7464C32.0337 30.7793 31.9933 30.818 31.9604 30.863C31.9604 30.863 31.8925 30.9527 31.7671 31.1191C28.8852 27.8499 24.6461 26.1261 22.2966 25.3708C14.8669 22.9852 7.81895 30.236 7.75558 30.3124C7.44462 30.6927 7.33903 31.063 7.43923 31.4135C7.4877 31.582 7.57633 31.7174 7.6873 31.8287C7.28819 32.149 6.8174 32.6015 6.37834 33.208C5.4386 34.5015 4.45271 36.7768 5.09757 40.2719C5.49669 42.4414 6.86548 44.6276 7.91079 44.7674C8.08565 44.7907 8.25128 44.7615 8.39375 44.6886C8.90881 45.8717 9.89856 47.3313 11.7917 48.6905C13.2243 49.7177 14.593 50.0171 15.364 49.466C15.5477 49.3351 15.7847 49.0945 15.8807 48.6813C17.4747 49.4277 20.9366 50.6371 25.2533 49.691C26.2832 51.7188 27.9734 54.4954 30.9797 56.763C31.176 56.9111 31.3745 57.0534 31.577 57.194C29.0778 59.9772 26.0012 64.4221 23.8065 71.0041C23.6881 71.3583 23.5924 71.7232 23.5177 72.0929C23.4552 72.4072 23.66 72.7121 23.9742 72.7746C24.2903 72.8372 24.5934 72.6324 24.6558 72.3182C24.661 72.2894 24.6699 72.2627 24.6751 72.234L30.7878 72.5305C31.808 77.6489 34.2997 82.4586 36.3607 84.9426C37.5984 86.4347 39.6652 87.328 41.5983 87.4151C42.7172 87.4655 43.7923 87.2452 44.6358 86.7148C45.4256 86.2188 47.0926 84.701 45.5501 81.3491C44.24 78.5045 43.459 75.6721 43.0054 73.1232L57.5917 73.8302C57.5768 74.1195 57.7777 74.3799 58.0693 74.4297C58.0942 74.4347 58.1173 74.4358 58.1424 74.4369C58.4299 74.4498 58.6884 74.2469 58.7382 73.9553C59.8754 67.2909 57.8069 60.8939 56.269 57.3122C58.9999 55.1792 60.7658 52.4093 61.6173 49.8554Z" fill="#2B3747"/>
<path d="M59.7265 38.4848C59.7257 38.5021 59.723 38.5194 59.7222 38.5368M54.259 34.4632C54.2854 34.4354 54.3117 34.4095 54.3381 34.3817M61.6173 49.8554C62.7503 46.4616 62.5247 43.142 61.1015 40.4894C59.2075 37.0971 57.5573 36.5815 54.6728 33.9491C54.3381 34.3817 55.7173 32.387 55.6401 32.3854C56.1691 31.2842 56.3737 30.3036 56.4193 29.5035C56.5375 29.4991 56.6549 29.4677 56.7678 29.407C57.5686 28.9675 57.9978 26.8179 57.6532 24.9834C57.101 22.0511 55.6388 20.5644 54.5098 19.8351C54.0215 19.5192 53.5532 19.3145 53.1591 19.1808C53.1928 19.076 53.2076 18.9607 53.1977 18.8384C53.1683 18.5027 52.9586 18.2226 52.5741 18.0042C52.5025 17.9643 44.819 14.4287 39.736 18.5261C37.9668 19.9523 35.5864 22.2886 34.302 25.3102C33.6425 26.8637 33.3569 28.3973 33.4439 29.8994C32.5513 30.4043 32.1237 30.7137 32.0777 30.7464C32.0337 30.7793 31.9933 30.818 31.9604 30.863C31.9604 30.863 31.8925 30.9527 31.7671 31.1191C28.8852 27.8499 24.6461 26.1261 22.2966 25.3708C14.8669 22.9852 7.81895 30.236 7.75558 30.3124C7.44462 30.6927 7.33903 31.063 7.43923 31.4135C7.4877 31.582 7.57633 31.7174 7.6873 31.8287C7.28819 32.149 6.8174 32.6015 6.37834 33.208C5.4386 34.5015 4.45271 36.7768 5.09757 40.2719C5.49669 42.4414 6.86548 44.6276 7.91079 44.7674C8.08565 44.7907 8.25128 44.7615 8.39375 44.6886C8.90881 45.8717 9.89856 47.3313 11.7917 48.6905C13.2243 49.7177 14.593 50.0171 15.364 49.466C15.5477 49.3351 15.7847 49.0945 15.8807 48.6813C17.4747 49.4277 20.9366 50.6371 25.2533 49.691C26.2832 51.7188 27.9734 54.4955 30.9797 56.763C31.176 56.9111 31.3745 57.0534 31.577 57.194C29.0778 59.9772 26.0012 64.4221 23.8065 71.0041C23.6881 71.3583 23.5924 71.7232 23.5177 72.0929C23.4552 72.4072 23.66 72.7121 23.9742 72.7746C24.2903 72.8372 24.5934 72.6324 24.6558 72.3182C24.661 72.2894 24.6699 72.2627 24.6751 72.234L30.7878 72.5305C31.808 77.6489 34.2997 82.4586 36.3607 84.9426C37.5983 86.4347 39.6652 87.328 41.5983 87.4151C42.7172 87.4655 43.7923 87.2452 44.6358 86.7148C45.4256 86.2188 47.0926 84.701 45.5501 81.3491C44.24 78.5045 43.459 75.6721 43.0054 73.1232L57.5917 73.8302C57.5768 74.1195 57.7777 74.3799 58.0693 74.4297C58.0942 74.4347 58.1173 74.4358 58.1424 74.4369C58.4299 74.4498 58.6884 74.2469 58.7382 73.9553C59.8754 67.2909 57.8069 60.8939 56.269 57.3122C58.9999 55.1792 60.7658 52.4093 61.6173 49.8554Z" stroke="#2B3747" stroke-width="1.15869" stroke-miterlimit="10" stroke-linecap="round" stroke-linejoin="round"/>
<path d="M40.0984 18.9755C44.7362 15.235 51.8776 18.2726 52.2866 18.5056C52.3676 18.5518 52.6014 18.6841 52.6193 18.8879C52.6502 19.2314 52.0498 19.5137 52.0498 19.5137C52.0498 19.5137 56.0885 19.8057 57.0839 25.0893C57.494 27.2728 56.704 29.2748 56.2756 28.8727C55.8471 28.4707 55.5737 27.5034 55.5737 27.5034C55.5737 27.5034 56.6754 29.9095 54.4857 33.2479C53.3918 34.9172 52.0367 35.3027 51.9144 33.7681C51.9144 33.7681 49.2001 37.4657 43.8942 37.9266C40.0264 38.2628 35.4051 34.1672 35.4051 34.1672C31.7493 28.0776 35.9703 22.3021 40.0984 18.9755Z" fill="#C0D6E2" stroke="#2B3747" stroke-width="1.15869" stroke-miterlimit="10" stroke-linecap="round" stroke-linejoin="round"/>
<path d="M38.2675 32.1174C38.2675 32.1174 38.7194 25.7315 43.0996 23.2475C46.5057 21.315 51.2616 22.5518 52.6081 28.752C53.9579 34.9658 46.2997 39.7998 46.2813 39.8222C46.2629 39.8445 46.2813 39.8222 46.2813 39.8222C46.2813 39.8222 45.2172 35.4209 38.1623 32.1359" fill="#2B3747"/>
<path d="M38.2675 32.1174C38.2675 32.1174 38.7194 25.7315 43.0996 23.2475C46.5057 21.315 51.2616 22.5518 52.6081 28.752C53.9579 34.9658 46.2997 39.7998 46.2813 39.8222C46.2629 39.8445 46.2813 39.8222 46.2813 39.8222C46.2813 39.8222 45.2172 35.4209 38.1623 32.1359" stroke="#2B3747" stroke-width="1.15869" stroke-miterlimit="10" stroke-linecap="round" stroke-linejoin="round"/>
<path d="M58.1629 73.8522C59.8332 64.0608 54.3273 54.6674 54.3273 54.6674C54.3273 54.6674 41.8021 48.2847 36.1775 53.8501C36.1775 53.8501 28.57 58.5452 24.355 71.1855C24.2409 71.5283 24.1522 71.8664 24.0869 72.2018" fill="white"/>
<path d="M58.1629 73.8522C59.8332 64.0608 54.3273 54.6674 54.3273 54.6674C54.3273 54.6674 41.8021 48.2847 36.1775 53.8501C36.1775 53.8501 28.57 58.5452 24.355 71.1855C24.2409 71.5283 24.1522 71.8664 24.0869 72.2018" stroke="#2B3747" stroke-width="1.15869" stroke-miterlimit="10" stroke-linecap="round" stroke-linejoin="round"/>
<path d="M57.993 37.7399C53.6985 33.6553 48.9027 33.5938 48.9027 33.5938C48.9027 33.5938 51.7264 32.4032 51.5566 28.9016C51.3868 25.3999 46.5998 29.5572 46.5998 29.5572C46.5998 29.5572 49.9638 23.9819 42.632 26.5456C35.3661 28.5149 31.7905 32.0558 31.7905 32.0558C29.3914 29.0095 25.566 27.0298 22.115 25.9233C15.1166 24.1326 8.56272 30.2425 8.20268 30.6825C8.13107 30.7701 7.92651 31.0199 7.9951 31.2569C8.11049 31.6565 8.90629 31.7136 8.90629 31.7136C8.90629 31.7136 4.49019 33.7939 5.6646 40.168C6.14915 42.8015 7.90742 44.7093 8.21441 44.0736C8.40217 43.6819 8.4333 43.0764 8.42857 42.6663C8.52815 43.6316 9.0867 46.0383 12.124 48.2184C14.079 49.6209 15.7697 49.467 15.2409 47.6879C15.2409 47.6879 19.6471 50.5076 25.5617 49.0206C27.6777 53.3301 32.2405 60.3555 45.2676 60.3158C60.2997 60.2678 66.2935 44.0135 57.993 37.7399Z" fill="white" stroke="#2B3747" stroke-width="1.15869" stroke-miterlimit="10" stroke-linecap="round" stroke-linejoin="round"/>
<path d="M38.3307 43.8213C38.82 41.6394 42.4617 39.7062 45.1249 42.1367" stroke="#2B3747" stroke-width="1.5" stroke-linecap="round"/>
<path d="M55.7401 38.8413C54.6836 37.909 52.1104 38.2694 51.6504 40.4944" stroke="#2B3747" stroke-width="1.5" stroke-linecap="round"/>
<path d="M46.5 51.5068C48 52.1735 51.7 53.1068 54.5 51.5068" stroke="#2B3747" stroke-width="1.5" stroke-linecap="round"/>
<path d="M28.954 34.5145C28.954 34.5145 25.3129 29.858 20.6767 30.2157C16.0405 30.5733 14.278 34.4259 16.2354 39.339C18.408 44.7955 26.7704 44.5418 26.7952 44.5507C26.7952 44.5507 25.2475 40.6708 28.954 34.5145Z" fill="#2B3747" stroke="#2B3747" stroke-width="1.15869" stroke-miterlimit="10" stroke-linecap="round" stroke-linejoin="round"/>
<path d="M36.9247 37.8168C37.7251 36.9272 38.9706 35.8414 40.7048 35.1386C40.9419 35.0427 41.2125 35.1349 41.3412 35.3549L41.7964 36.1319C41.9493 36.3934 41.8429 36.7327 41.5649 36.8572C40.8054 37.1997 39.2855 37.8763 37.5093 38.6276C37.0053 38.8398 36.5591 38.2217 36.9247 37.8168Z" fill="#C0D6E2"/>
<path d="M30.9816 66.2529C30.3112 72.8126 33.7299 80.8633 36.8048 84.5684C39.8504 88.2392 47.7931 87.6052 45.0214 81.5863C40.7142 72.2333 42.0145 63.1483 42.0145 63.1483" fill="white"/>
<path d="M30.9816 66.2529C30.3112 72.8126 33.7299 80.8633 36.8048 84.5684C39.8504 88.2392 47.7931 87.6052 45.0214 81.5863C40.7142 72.2333 42.0145 63.1483 42.0145 63.1483" stroke="#2B3747" stroke-width="1.15869" stroke-miterlimit="10" stroke-linecap="round" stroke-linejoin="round"/>
<path d="M50.4764 45.3152C50.7549 47.6826 52.5829 49.9736 54.4767 49.7499C56.3705 49.5262 57.6149 46.8725 57.3357 44.5069C57.0571 42.1395 55.3589 40.9542 53.4651 41.1779C51.5713 41.4015 50.196 42.9471 50.4764 45.3152Z" fill="#2B3747"/>
</g>
</svg>
