<svg width="72" height="72" viewBox="0 0 72 72" fill="none" xmlns="http://www.w3.org/2000/svg">
<mask id="mask0_380:250" style="mask-type:alpha" maskUnits="userSpaceOnUse" x="0" y="0" width="72" height="72">
<circle cx="36" cy="36" r="36" fill="#64DFA3"/>
</mask>
<g mask="url(#mask0_380:250)">
<rect x="-10" y="-12" width="87" height="90" fill="#64DFA3"/>
<path d="M63.5145 48.5778C64.4936 45.1365 64.1189 41.8304 62.5779 39.2446C62.7903 38.6362 62.9062 37.9835 62.9062 37.3037C62.9062 34.042 60.2528 31.3886 56.9911 31.3886C56.9119 31.3886 56.8346 31.3925 56.7574 31.3944C57.2363 30.2705 57.3966 29.2817 57.4063 28.4803C57.5241 28.4707 57.6399 28.434 57.75 28.3683C58.5302 27.8932 58.8624 25.7265 58.4356 23.9093C57.7519 21.0048 56.2244 19.5854 55.0638 18.9076C54.5617 18.6141 54.0847 18.4306 53.6849 18.3147C53.7139 18.2085 53.7236 18.0926 53.7081 17.971C53.6637 17.6369 53.4416 17.3665 53.0477 17.1657C52.9743 17.129 45.1396 13.9426 40.246 18.2645C38.5428 19.7689 36.2698 22.2099 35.1227 25.2862C34.5337 26.8678 34.3174 28.4127 34.4719 29.9094C33.6029 30.4539 33.1896 30.7822 33.1452 30.817C33.1027 30.8518 33.0641 30.8923 33.0332 30.9387C33.0332 30.9387 32.9695 31.0314 32.8517 31.2032C29.8256 28.067 25.5133 26.5356 23.1322 25.8868C15.6026 23.8378 8.88801 31.3983 8.82814 31.4775C8.53461 31.8714 8.44577 32.2461 8.56164 32.5917C8.61765 32.7578 8.71227 32.8891 8.82814 32.9953C8.44384 33.3333 7.99388 33.8064 7.58255 34.4321C6.70194 35.7665 5.81941 38.0839 6.62084 41.5465C7.11714 43.6959 8.58289 45.8182 9.63343 45.9109C9.80917 45.9263 9.97331 45.8896 10.1124 45.8105C10.6801 46.9692 11.7345 48.3828 13.6869 49.6554C15.1643 50.6171 16.545 50.8546 17.2904 50.2695C17.4681 50.1305 17.6941 49.8794 17.7713 49.4623C19.3973 50.1362 22.9101 51.1887 27.1799 50.0493C28.2999 52.0288 30.1133 54.7266 33.2186 56.8567C33.4214 56.9957 33.6261 57.1289 33.8346 57.2603C31.4632 60.1531 28.5896 64.7319 26.6932 71.406C26.5909 71.7651 26.5117 72.134 26.4538 72.5067C26.4055 72.8234 26.6237 73.1189 26.9404 73.1672C27.2591 73.2154 27.5526 72.9972 27.6009 72.6805C27.6047 72.6515 27.6125 72.6245 27.6163 72.5955L33.7361 72.6168C34.9856 77.6841 37.6911 82.3768 39.8617 84.7657C41.1653 86.2005 43.2702 87 45.2052 87C46.3253 87 47.3894 86.7316 48.2082 86.1638C48.9749 85.6327 50.5719 84.0415 48.8802 80.7624C47.4435 77.9796 46.5358 75.1852 45.9681 72.6593L60.5714 72.7095C60.5695 72.9992 60.7819 73.2502 61.0755 73.2869C61.1006 73.2908 61.1237 73.2908 61.1488 73.2908C61.4366 73.2908 61.6857 73.0764 61.7224 72.7829C62.5586 66.074 60.2045 59.7766 58.507 56.2677C61.1392 54.014 62.7787 51.1675 63.5145 48.5778ZM61.1141 37.3037C61.1141 37.3211 61.1121 37.3385 61.1121 37.3559C60.6776 36.9194 60.2006 36.5178 59.6773 36.1586C58.0995 35.0733 56.6975 34.1985 55.4712 33.5322C55.4964 33.5032 55.5215 33.4762 55.5466 33.4472C55.9965 33.2773 56.4812 33.1807 56.9911 33.1807C59.266 33.1807 61.1141 35.0308 61.1141 37.3037Z" fill="#2B3747" stroke="#2B3747" stroke-width="1.15869" stroke-miterlimit="10" stroke-linecap="round" stroke-linejoin="round"/>
<path d="M40.6282 18.6972C45.0931 14.7519 52.3638 17.4651 52.7829 17.6795C52.8659 17.722 53.1054 17.8436 53.1324 18.0464C53.1788 18.3882 52.5917 18.6972 52.5917 18.6972C52.5917 18.6972 56.6394 18.8073 57.8715 24.0407C58.3794 26.2036 57.6803 28.239 57.2342 27.8567C56.7881 27.4743 56.4714 26.5203 56.4714 26.5203C56.4714 26.5203 57.6803 28.8744 55.6429 32.308C54.6252 34.0248 53.2889 34.4709 53.0977 32.9433C53.0977 32.9433 50.5524 36.7593 45.2727 37.4584C41.4239 37.9682 36.623 34.0846 36.623 34.0846C32.697 28.1657 36.6539 22.2061 40.6282 18.6972Z" fill="#C0D6E2" stroke="#2B3747" stroke-width="1.15869" stroke-miterlimit="10" stroke-linecap="round" stroke-linejoin="round"/>
<path d="M39.3904 31.9082C39.3904 31.9082 39.5546 25.5083 43.8185 22.8298C47.1343 20.7461 51.941 21.7677 53.5651 27.901C55.193 34.0479 47.76 39.2214 47.7426 39.2446C47.7253 39.2678 47.7426 39.2446 47.7426 39.2446C47.7426 39.2446 46.4816 34.8957 39.2861 31.9313" fill="#2B3747"/>
<path d="M39.3904 31.9082C39.3904 31.9082 39.5546 25.5083 43.8185 22.8298C47.1343 20.7461 51.941 21.7677 53.5651 27.901C55.193 34.0479 47.76 39.2214 47.7426 39.2446C47.7253 39.2678 47.7426 39.2446 47.7426 39.2446C47.7426 39.2446 46.4816 34.8957 39.2861 31.9313" stroke="#2B3747" stroke-width="1.15869" stroke-miterlimit="10" stroke-linecap="round" stroke-linejoin="round"/>
<path d="M61.1431 72.7057C62.3713 62.8491 56.4484 53.7128 56.4484 53.7128C56.4484 53.7128 43.6488 47.9001 38.2802 53.7128C38.2802 53.7128 30.8916 58.7454 27.2494 71.5625C27.1509 71.9101 27.0776 72.2519 27.0273 72.5898" fill="white"/>
<path d="M61.1431 72.7057C62.3713 62.8491 56.4484 53.7128 56.4484 53.7128C56.4484 53.7128 43.6488 47.9001 38.2802 53.7128C38.2802 53.7128 30.8916 58.7454 27.2494 71.5625C27.1509 71.9101 27.0776 72.2519 27.0273 72.5899" stroke="#2B3747" stroke-width="1.15869" stroke-miterlimit="10" stroke-linecap="round" stroke-linejoin="round"/>
<path d="M59.349 36.6376C50.7747 30.7437 50.0814 32.9046 50.0814 32.9046C50.0814 32.9046 52.2134 32.0839 52.4219 28.1154C52.6305 24.1449 46.4856 29.8148 46.4856 29.8148C46.4856 29.8148 50.709 23.2547 43.5 26.1456C36.291 29.0365 33.5044 31.2709 33.5044 31.2709C33.5044 31.2709 33.2823 31.5895 32.9173 32.138C30.3836 29.2026 26.473 27.397 22.9757 26.4469C16.0448 24.5621 9.63146 31.3713 9.29158 31.8271C9.22399 31.9178 9.03087 32.1766 9.11005 32.4103C9.2433 32.8042 10.0409 32.8274 10.0409 32.8255C10.0409 32.8255 5.72281 35.1023 7.18276 41.4172C7.78528 44.0261 9.6276 45.853 9.90568 45.2041C10.0756 44.8044 10.0795 44.198 10.0563 43.7886C10.1992 44.7484 10.8655 47.1276 13.9978 49.1688C16.0139 50.482 17.696 50.2522 17.0876 48.4987C17.0876 48.4987 21.6162 51.1173 27.4579 49.3658C29.7656 53.5757 34.6399 60.3888 47.652 59.7631C62.6667 59.0389 67.9233 42.5314 59.349 36.6376Z" fill="white" stroke="#2B3747" stroke-width="1.15869" stroke-miterlimit="10" stroke-linecap="round" stroke-linejoin="round"/>
<path d="M30.1944 34.7218C30.1944 34.7218 26.3475 30.2338 21.7321 30.7996C17.1166 31.3654 15.5292 35.2934 17.7056 40.1136C20.1215 45.4667 28.4641 44.8372 28.4892 44.8449C28.5143 44.8526 28.4892 44.8449 28.4892 44.8449C28.4892 44.8449 26.8573 40.9942 30.2832 34.6774" fill="#2B3747"/>
<path d="M30.1944 34.7218C30.1944 34.7218 26.3475 30.2338 21.7321 30.7996C17.1166 31.3654 15.5292 35.2934 17.7056 40.1136C20.1215 45.4667 28.4641 44.8372 28.4892 44.8449C28.5143 44.8526 28.4892 44.8449 28.4892 44.8449C28.4892 44.8449 26.8573 40.9942 30.2832 34.6774" stroke="#2B3747" stroke-width="1.15869" stroke-miterlimit="10" stroke-linecap="round" stroke-linejoin="round"/>
<path d="M42.6255 46.2641C43.8408 45.8625 44.3511 44.1003 43.7654 42.3281C43.1797 40.5559 41.7198 39.4448 40.5046 39.8464C39.2893 40.2481 38.779 42.0103 39.3647 43.7825C39.9504 45.5547 41.4103 46.6658 42.6255 46.2641Z" fill="#2B3747" stroke="#2B3747" stroke-width="1.15869" stroke-miterlimit="10" stroke-linecap="round"/>
<path d="M40.0548 33.0339C38.9483 33.4897 37.5076 34.2988 36.264 35.697C36.094 35.8882 36.0901 36.174 36.2543 36.369L36.8336 37.0584C37.0287 37.2902 37.384 37.3037 37.5945 37.0835C38.1719 36.483 39.319 35.2779 40.6226 33.8566C40.9914 33.453 40.5588 32.8254 40.0548 33.0339Z" fill="#C0D6E2"/>
<path d="M33.6474 66.3368C33.2727 72.9201 37.0501 80.8089 40.2886 84.3718C43.4963 87.902 51.4024 86.9113 48.3628 81.0232C43.6392 71.8734 44.5294 62.7391 44.5294 62.7391" fill="white"/>
<path d="M33.6474 66.3368C33.2727 72.9201 37.0501 80.8089 40.2886 84.3718C43.4963 87.902 51.4024 86.9113 48.3628 81.0232C43.6392 71.8734 44.5294 62.7391 44.5294 62.7391" stroke="#2B3747" stroke-width="1.15869" stroke-miterlimit="10" stroke-linecap="round" stroke-linejoin="round"/>
<path d="M54.7373 40.3255C55.5262 40.0647 55.8575 38.9208 55.4773 37.7704C55.0971 36.62 54.1494 35.8987 53.3605 36.1595C52.5716 36.4202 52.2403 37.5641 52.6205 38.7145C53.0007 39.8649 53.9485 40.5862 54.7373 40.3255Z" fill="#2B3747" stroke="#2B3747" stroke-width="1.15869" stroke-miterlimit="10" stroke-linecap="round"/>
<path d="M42.9724 50.0123C38.747 50.0123 35.3096 46.5749 35.3096 42.3495C35.3096 38.1242 38.747 34.6867 42.9724 34.6867C47.1977 34.6867 50.6352 38.1242 50.6352 42.3495C50.6352 46.5749 47.1977 50.0123 42.9724 50.0123ZM42.9724 37.008C40.0274 37.008 37.6308 39.4045 37.6308 42.3495C37.6308 45.2945 40.0274 47.6911 42.9724 47.6911C45.9174 47.6911 48.3139 45.2945 48.3139 42.3495C48.3139 39.4045 45.9174 37.008 42.9724 37.008Z" fill="#FF989E"/>
<path d="M42.973 35.1526C46.9415 35.1526 50.1704 38.3815 50.1704 42.35C50.1704 46.3185 46.9415 49.5474 42.973 49.5474C39.0044 49.5474 35.7756 46.3185 35.7756 42.35C35.7756 38.3815 39.0044 35.1526 42.973 35.1526ZM42.973 34.2237C38.4927 34.2237 34.8467 37.8697 34.8467 42.35C34.8467 46.8303 38.4927 50.4763 42.973 50.4763C47.4532 50.4763 51.0993 46.8303 51.0993 42.35C51.0993 37.8697 47.4532 34.2237 42.973 34.2237Z" fill="white"/>
<path d="M56.9908 43.2209C53.7291 43.2209 51.0757 40.5675 51.0757 37.3058C51.0757 34.0441 53.7291 31.3907 56.9908 31.3907C60.2525 31.3907 62.9059 34.0441 62.9059 37.3058C62.9059 40.5675 60.2525 43.2209 56.9908 43.2209ZM56.9908 33.1808C54.7178 33.1808 52.8678 35.0309 52.8678 37.3038C52.8678 39.5768 54.7178 41.4269 56.9908 41.4269C59.2657 41.4269 61.1157 39.5768 61.1157 37.3038C61.1157 35.0309 59.2657 33.1808 56.9908 33.1808Z" fill="#FF989E"/>
<path d="M52.9587 44.7079C54.0054 46.8496 56.4888 48.4061 58.2018 47.5679C59.9147 46.7298 60.2102 43.8138 59.1635 41.6741C58.1168 39.5324 56.1219 38.9763 54.409 39.8144C52.6961 40.6525 51.9101 42.5663 52.9587 44.7079Z" fill="#2B3747"/>
<path d="M52.9199 51.9014C54.4687 51.7469 55.3879 51.2139 56.3805 50.5496" stroke="#2B3747" stroke-width="1.15869" stroke-miterlimit="10" stroke-linecap="round" stroke-linejoin="round"/>
<path d="M49.3608 43.1996C49.3608 43.1996 49.554 39.9167 53.4163 39.9167L49.3608 43.1996Z" fill="#FF989E"/>
</g>
</svg>
