<svg width="400" height="142" viewBox="0 0 400 142" fill="none" xmlns="http://www.w3.org/2000/svg">
<path d="M219.656 77.9315C219.656 63.323 229.947 53.8602 244.221 53.8602C258.494 53.8602 268.828 63.323 268.828 77.9315C268.828 92.5401 258.537 102 244.221 102C229.904 102 219.656 92.5401 219.656 77.9315ZM244.221 90.5946C251.15 90.5946 256.048 85.4488 256.048 77.9315C256.048 70.4143 251.156 65.2685 244.221 65.2685C237.285 65.2685 232.422 70.4143 232.422 77.9315C232.422 85.4488 237.334 90.5888 244.221 90.5888V90.5946Z" fill="white"/>
<path d="M331.136 95.277V46.4754C331.136 42.6564 333.668 40 337.361 40C341.053 40 343.545 42.6564 343.545 46.4754V95.277C343.545 99.0961 341.012 101.752 337.361 101.752C333.709 101.752 331.136 99.0961 331.136 95.277Z" fill="white"/>
<path d="M176.168 80.326C176.177 77.3128 178.623 74.8723 181.636 74.8723C183.72 74.8723 185.328 76.0091 186.448 77.7502L202.989 98.7594C204.523 100.751 207.138 101.747 209.087 101.747C212.451 101.747 215.395 99.3407 215.395 96.434C215.395 94.5662 214.689 93.1963 212.574 90.4996L194.643 67.7867C194.226 67.2572 194.289 66.4945 194.79 66.0427L210.209 52.1133C212.905 49.6642 213.737 47.8367 213.737 45.4307C213.737 42.8175 211.038 40.2849 208.298 40.2849C205.852 40.2849 204.232 41.1138 202.738 42.4434L183.294 60.1285C181.556 61.7085 178.865 61.579 177.285 59.8407C176.574 59.0579 176.18 58.0362 176.18 56.98V46.7661C176.18 42.7369 173.527 40 169.625 40C165.642 40 162.986 42.7398 162.986 46.7661V94.9863C162.986 99.0155 165.642 101.752 169.625 101.752C173.527 101.752 176.18 99.0126 176.18 94.9863V83.4371" fill="white"/>
<path d="M322.218 91.1759C321.758 90.301 320.992 89.6218 320.068 89.2707C319.585 89.1124 319.055 89.1988 318.647 89.5038C318.235 89.8003 317.737 89.9528 317.231 89.9442C316.08 89.9442 315.487 89.1988 315.487 87.7454V69.9423C315.487 59.36 308.681 53.8833 297.188 53.8833C289.303 53.8833 282.747 56.5368 278.555 61.3516C276.978 63.1359 276.273 64.9203 276.273 66.8197C276.273 69.5998 278.307 71.4245 281.334 71.4245C282.995 71.4245 284.408 70.6791 286.937 68.7681C290.008 66.1117 293.496 64.5778 296.897 64.5778C300.756 64.5778 303.038 66.2384 303.038 68.9753C303.038 70.9266 302.002 71.9655 299.179 72.5872L288.805 75.0363C280.339 76.9847 276.232 81.4254 276.232 88.5627C276.232 96.621 282.54 101.965 291.959 101.965C297.311 101.965 301.919 100.057 305.073 96.6959C307.021 99.8904 310.342 101.801 314.451 101.801C316.33 101.781 318.172 101.266 319.792 100.311C323.89 97.7233 322.986 92.6178 322.218 91.1759ZM303.081 84.8818C303.081 88.9916 299.76 92.0192 295.28 92.0192C291.752 92.0192 289.386 90.2348 289.386 87.5814C289.386 85.0056 291.294 83.1809 295.029 82.401L299.139 81.4887C300.839 81.0743 302.166 80.4929 303.081 79.7878V84.8818Z" fill="white"/>
<path d="M399.341 91.1759C398.88 90.301 398.115 89.6218 397.191 89.2707C396.708 89.1124 396.178 89.1988 395.769 89.5038C395.358 89.8003 394.86 89.9528 394.354 89.9442C393.203 89.9442 392.61 89.1988 392.61 87.7454V69.9423C392.61 59.36 385.804 53.8833 374.31 53.8833C366.425 53.8833 359.87 56.5368 355.677 61.3516C354.1 63.1359 353.395 64.9203 353.395 66.8197C353.395 69.5998 355.43 71.4245 358.457 71.4245C360.117 71.4245 361.53 70.6791 364.06 68.7681C367.13 66.1117 370.618 64.5778 374.02 64.5778C377.879 64.5778 380.161 66.2384 380.161 68.9753C380.161 70.9266 379.125 71.9655 376.302 72.5872L365.928 75.0363C357.461 76.9847 353.355 81.4254 353.355 88.5627C353.355 96.621 359.663 101.965 369.082 101.965C374.434 101.965 379.041 100.057 382.195 96.6959C384.144 99.8904 387.464 101.801 391.574 101.801C393.453 101.781 395.295 101.266 396.915 100.311C401.013 97.7233 400.109 92.6178 399.341 91.1759ZM380.204 84.8818C380.204 88.9916 376.883 92.0192 372.402 92.0192C368.874 92.0192 366.509 90.2348 366.509 87.5814C366.509 85.0056 368.417 83.1809 372.152 82.401L376.261 81.4887C377.962 81.0743 379.289 80.4929 380.204 79.7878V84.8818Z" fill="white"/>
<path fill-rule="evenodd" clip-rule="evenodd" d="M6.98889 58.8021C6.98889 26.3256 33.315 0 65.7887 0C98.2623 0 124.588 26.3256 124.588 58.8021V83.2064C124.597 90.9826 123.054 98.6847 120.057 105.86C116.876 99.6268 111.96 93.3478 104.475 87.7605C112.797 78.8515 114.123 67.3467 111.482 58.7964C112.046 56.7812 111.844 54.3447 110.87 51.8542C109.712 48.9367 107.757 46.4007 105.232 44.5335C101.325 41.6986 96.3896 41.209 92.7096 43.1473C88.1331 42.6378 84.5727 42.5695 81.8718 42.9481C81.6042 41.2915 81.0806 39.6862 80.3207 38.1919C78.9318 35.4708 76.6749 35.2289 75.767 35.2545C74.102 35.2972 72.4798 36.2393 70.9287 38.061C70.7152 37.9243 70.4904 37.8048 70.2598 37.6995C66.7933 36.1283 63.1333 38.9006 60.3327 41.4936C59.5017 42.2621 58.7076 43.0534 57.9477 43.8646C55.6794 42.561 53.2745 41.5107 50.7756 40.7337C40.4444 37.5031 30.8133 46.4633 29.3448 48.3589C28.6674 49.1787 28.3088 50.2147 28.3344 51.2793C26.6979 53.1806 25.0813 56.2347 25.3062 60.7632C18.9651 64.785 14.992 71.4967 14.2947 79.5489L14.2805 79.6827C14.0756 80.9151 14.3744 82.1789 15.1116 83.1865C14.8327 84.5015 14.7274 85.8478 14.7985 87.1913C14.901 88.9019 15.2738 90.5841 15.9056 92.178C15.5214 92.0243 15.1343 91.8848 14.7473 91.7539L14.6989 91.7368C14.1126 91.5461 13.5434 91.381 12.9913 91.2387L12.627 91.1476L12.2 91.0452L11.813 90.9598L11.4345 90.8801L11.0616 90.8061L10.7059 90.7406L10.3558 90.678L10.0171 90.6239L9.70404 90.5755L9.35682 90.5271L9.11206 90.493L8.58838 90.4304C8.28101 90.3962 8.01632 90.3706 7.80287 90.3535H7.77441H7.64349H7.6008H7.4215C7.13404 87.9825 6.98889 85.5945 6.98889 83.2064V58.8021ZM8.91574 94.6458C8.91574 94.6458 12.0123 98.3289 15.6325 98.7074C17.1921 98.8611 18.5924 99.0775 19.7877 99.2995C15.6324 99.5642 12.1802 99.8488 9.47072 100.133C8.81612 97.9475 8.28675 95.7245 7.88831 93.4788C8.20991 93.8858 8.55144 94.2757 8.91574 94.6458ZM11.8807 106.703C15.3729 106.381 19.8981 106.04 25.354 105.786L25.3085 105.812C21.5801 107.975 18.4238 111.431 16.0701 114.598C14.4735 112.077 13.0732 109.438 11.8807 106.703ZM41.5481 105.408H41.5253C40.1108 105.408 38.6878 105.419 37.2562 105.445H37.2221L35.8332 105.465C33.6673 108.396 31.6922 111.465 29.9162 114.647C27.8898 118.256 23.6833 120.479 21.1902 121.538C26.0712 127.21 31.9853 131.904 38.6167 135.371C38.3548 133.213 38.4715 131.027 38.9639 128.91L41.2094 119.053C41.3318 118.529 41.4741 118 41.6363 117.482L45.4216 105.408H45.1968C43.9872 105.393 42.7719 105.393 41.5481 105.408Z" fill="#64DFA3"/>
<path fill-rule="evenodd" clip-rule="evenodd" d="M100.664 130.535C99.9153 131.144 99.1269 131.699 98.3016 132.194L96.1756 133.452C94.6842 134.335 93.1587 135.248 93.1587 135.248C85.7817 139.137 77.6562 141.402 69.3315 141.892C62.6233 135.069 59.5324 126.416 60.1444 116.107C60.244 114.408 60.4347 112.714 60.7221 111.035C60.8303 110.488 60.964 109.902 61.1149 109.262C61.4023 108.035 61.926 106.874 62.6574 105.846C65.2986 102.146 70.7346 100.247 78.0262 106.794C79.8164 108.433 81.45 110.232 82.9129 112.168C82.5628 113.255 82.2924 114.365 82.1046 115.489C79.6257 116.221 73.4867 118.478 71.7392 123.211C71.4831 123.983 71.8673 124.82 72.6215 125.124C73.4099 125.44 74.3035 125.062 74.6223 124.273C75.9315 120.718 81.7062 118.689 83.8208 118.205C84.464 118.06 84.945 117.519 85.0104 116.861C85.0104 116.844 85.0446 116.534 85.13 116.042C85.4658 114.072 86.6185 109.105 89.8374 107.81C90.2757 107.631 90.7424 107.528 91.2149 107.503C91.2689 107.5 91.3259 107.5 91.3799 107.503C92.1398 107.48 92.6977 107.602 92.9567 107.887C93.0307 107.969 93.0876 108.066 93.1246 108.171C93.1872 108.354 93.2156 108.547 93.2043 108.741C93.1103 109.384 93.4319 110.016 94.0069 110.318C94.5846 110.619 95.2876 110.528 95.7686 110.09C95.965 109.908 97.7494 108.365 99.6876 109.714C101.407 110.907 100.795 112.492 100.576 112.936C100.24 113.551 100.356 114.314 100.86 114.803C101.347 115.276 102.09 115.358 102.667 115.005C102.858 114.926 103.609 114.678 104.526 115.495C104.785 115.72 105.001 116.426 104.904 117.487C104.838 118.179 104.879 118.957 104.923 119.801C105.025 121.721 105.144 123.982 104.051 126.342C106.549 123.143 107.736 120.12 107.95 117.766C108.132 115.797 107.637 114.174 106.561 113.212C105.829 112.532 104.916 112.079 103.934 111.906C103.923 111.903 103.917 111.894 103.917 111.883C103.96 110.355 103.405 108.567 101.438 107.201C100.718 106.689 99.8925 106.344 99.0245 106.188C97.923 106.005 96.7932 106.133 95.76 106.555C95.7486 106.569 95.7344 106.555 95.7344 106.555C95.5921 106.304 95.4242 106.074 95.2307 105.86C94.2943 104.836 92.8827 104.369 91.0384 104.471C90.5574 104.5 90.0821 104.571 89.6154 104.688C89.6097 104.69 89.5983 104.69 89.5926 104.688C88.6562 103.299 87.6231 101.978 86.4989 100.737C81.709 95.4797 74.7162 91.475 65.253 94.6998H65.236C62.8595 93.7634 60.5883 92.5765 58.4623 91.1619C58.3513 91.0879 58.2176 91.048 58.0838 91.048C57.896 91.0509 57.7138 91.1277 57.5829 91.2615C53.6952 95.2577 48.4669 97.6771 42.9057 98.0557C42.6382 98.067 42.402 98.2293 42.2967 98.4741C42.2796 98.5196 42.2654 98.5651 42.2568 98.6135C42.2084 98.827 42.2625 99.0519 42.402 99.2226C42.8061 99.7065 42.9171 100.131 42.735 100.484C42.3877 101.138 40.9106 101.753 38.4659 101.554C34.655 101.244 32.1647 99.9371 30.6705 98.7985C30.5339 98.6932 30.4029 98.5908 30.2834 98.4911C30.0073 98.252 29.6089 98.2122 29.293 98.3972C29.1194 98.4968 28.9828 98.6562 28.9145 98.8441C28.9116 98.8526 28.9031 98.8583 28.8945 98.8583H28.9088C28.8547 99.0092 28.8405 99.1714 28.8689 99.3308V99.4133C28.5928 99.5016 27.8927 99.3336 26.9991 98.9323C25.3683 98.1723 23.9139 97.0765 22.73 95.7188C17.1403 89.3146 18.7882 83.8497 19.7558 81.8003C19.8782 81.5413 19.8384 81.2368 19.6562 81.0176C19.4769 80.7984 19.1838 80.7045 18.9077 80.7785C18.5605 80.8696 18.3442 80.824 18.3072 80.7785C18.2702 80.733 18.1876 80.6106 18.2474 80.1637C18.249 80.1526 18.251 80.1404 18.2531 80.127C18.2626 80.0679 18.2759 79.9857 18.2759 79.8791C18.5975 76.1703 20.2795 67.9815 28.5957 63.4672C28.6099 63.4615 28.6242 63.4672 28.6298 63.4814V63.453C28.7041 63.413 28.7834 63.3743 28.8618 63.336C28.9007 63.3171 28.9393 63.2982 28.9771 63.2793C29.2247 63.1712 29.4894 63.0602 29.774 62.9463V62.954C29.7758 62.948 29.7808 62.9425 29.7882 62.9406C30.9039 62.5023 32.0423 62.1323 33.2035 61.8334C37.0485 60.8514 43.2273 60.1085 50.8491 62.1408C50.9174 62.1579 50.9886 62.1721 51.0597 62.1835C52.1327 62.3429 53.1288 61.6029 53.2882 60.5326C53.3252 60.2736 54.0566 55.6597 57.3979 50.5364C57.7423 50.0924 58.1009 49.6455 58.4851 49.1872C58.5166 49.1498 58.5482 49.1125 58.5797 49.0751C58.8097 48.8021 59.0402 48.5287 59.2905 48.2508C60.4716 46.9102 61.7211 45.6293 63.0331 44.4168C66.5765 41.1378 68.0308 41.0724 68.6 41.3257C69.6673 41.8096 69.599 44.32 69.5762 45.1454C69.5648 45.5354 69.8352 45.877 70.2166 45.9538C70.5951 46.0079 70.9623 45.8001 71.1102 45.4472C73.0484 41.1748 74.5511 40.0107 75.4704 39.7858C75.9827 39.6691 76.5178 39.8114 76.9077 40.1615C77.881 40.9301 78.2055 44.3769 78.3592 46.0335L78.4076 46.4604C78.4417 46.8362 78.6523 47.1749 78.9768 47.3713C79.3354 47.5791 79.7708 47.6075 80.155 47.4481C82.3494 46.5515 86.5075 46.4405 92.5127 47.1208C92.3675 47.2802 92.2337 47.451 92.1085 47.6274C90.0281 50.6559 91.4511 54.8343 95.5437 57.8087C98.1593 59.693 101.384 60.8315 103.977 60.8315C104.406 60.8343 104.833 60.8002 105.257 60.729C106.131 60.6066 106.945 60.2224 107.597 59.6304C107.668 59.8467 107.736 60.0658 107.799 60.2879C108.106 61.3495 108.334 62.4311 108.482 63.527C107.864 65.5649 106.76 65.2803 106.76 65.2803C106.432 65.2044 106.303 64.9145 106.154 64.5799C106.146 64.563 106.139 64.546 106.131 64.5289C106 64.2272 105.767 63.9795 105.471 63.8344C104.788 63.4957 103.96 63.7774 103.624 64.4606C102.548 66.6294 101.148 67.9871 99.4628 68.4938C96.8558 69.2765 94.2886 67.8249 94.2431 67.7964C93.6027 67.4492 92.8058 67.657 92.4159 68.2689C92.0061 68.9122 92.1968 69.7689 92.84 70.1788C94.374 71.0156 96.0873 71.4653 97.8348 71.4881C98.6431 71.491 99.4485 71.3771 100.226 71.1494C102.13 70.5858 103.74 69.3591 105.041 67.4919H105.072C105.505 67.8078 106.017 67.9985 106.549 68.0412C107.324 68.0839 108.083 67.8391 108.687 67.3524C108.69 67.3496 108.693 67.3496 108.695 67.3496C108.71 67.3496 108.721 67.3581 108.724 67.3723C108.636 73.9416 106.054 81.5982 98.8452 87.604C98.7939 87.6467 98.7513 87.6979 98.7142 87.752C98.4951 88.0793 98.5833 88.5233 98.9106 88.7425C106.697 93.8232 112.56 100.062 116.337 107.292C116.886 108.342 117.393 109.418 117.854 110.511C117.857 110.517 117.857 110.525 117.854 110.531C113.704 118.41 107.827 125.247 100.664 130.535ZM47.727 88.9304C50.2116 88.2928 52.6023 87.3336 54.8421 86.084V86.0869C55.2662 85.9019 55.4853 85.4322 55.3544 84.991C55.3004 84.769 55.1637 84.5755 54.973 84.4502C54.7397 84.2453 53.6012 83.195 52.4628 81.0347C51.535 79.2216 50.8633 77.2861 50.4706 75.288C50.388 74.8923 50.3112 74.4796 50.24 74.0498C49.9668 72.3306 49.8274 70.5944 49.8217 68.8524C49.8188 68.4739 49.5826 68.1352 49.2297 67.9985L49.1756 67.9758C47.3712 67.3296 45.4956 66.9055 43.5888 66.7148C39.8974 66.3306 36.6245 66.9112 34.0374 68.3913C34.0288 68.3999 34.0146 68.3999 34.0061 68.3913V68.4141C33.6503 68.619 33.3059 68.8439 32.9729 69.0858L32.9246 69.1171C29.8537 71.38 28.1887 74.6931 28.3709 78.2111C28.5672 82.0394 30.8441 85.5034 34.6151 87.7121C36.9461 89.0357 39.5872 89.7074 42.2654 89.6619C44.1096 89.6476 45.9453 89.4028 47.727 88.9304ZM81.4329 60.8884C83.3569 59.582 84.5921 57.507 85.1101 54.7262C85.2524 54.0516 84.8938 53.3713 84.2562 53.1123C84.1737 53.0838 84.0912 53.0582 84.0058 53.044C83.2544 52.9074 82.5344 53.4083 82.4006 54.1597C82.0335 56.2119 81.1882 57.7034 79.8961 58.5915C77.9805 59.9079 75.5821 59.5668 75.2611 59.5211C75.2406 59.5182 75.2286 59.5165 75.2257 59.5165C74.5028 59.397 73.814 59.8581 73.6489 60.5725C73.4782 61.3154 73.9421 62.0583 74.6878 62.229C75.2228 62.323 75.7664 62.3685 76.31 62.3628C78.1258 62.3941 79.9103 61.879 81.4329 60.8884ZM49.9924 58.1417C40.9846 56.1322 33.8865 57.5497 29.5008 59.1009C29.4951 59.1038 29.4922 59.1038 29.4865 59.1038C29.4723 59.1009 29.4638 59.0896 29.4666 59.0782C29.8366 54.2423 33.1523 52.4861 33.323 52.4007C33.5166 52.3039 33.6475 52.1104 33.6617 51.8912C33.6845 51.5525 33.4283 51.2593 33.0897 51.2366C32.8819 51.2252 32.6798 51.1739 32.492 51.0857C32.5261 51.0174 32.566 50.9548 32.6144 50.8978C34.2366 49.2071 36.0923 47.7584 38.1243 46.5942C43.2131 43.6597 47.1378 43.9358 49.5342 44.6872C51.5151 45.3048 53.4305 46.1132 55.2548 47.1037L55.2577 47.1066C55.2662 47.1151 55.2634 47.1293 55.2548 47.1379C52.8385 50.4396 51.0626 54.1683 50.0209 58.1247C50.0181 58.1389 50.0038 58.1446 49.9924 58.1417Z" fill="white"/>
<path fill-rule="evenodd" clip-rule="evenodd" d="M104.475 87.7605C112.785 78.8458 114.123 67.341 111.516 58.7821C112.085 56.7669 111.877 54.3305 110.904 51.84C109.746 48.9225 107.79 46.3864 105.266 44.5192C101.347 41.6729 96.4118 41.1947 92.7432 43.1331C88.1553 42.6236 84.6063 42.5638 81.9053 42.9338C81.635 41.2801 81.1113 39.6777 80.3514 38.1833C78.9511 35.4623 76.6942 35.2203 75.7977 35.2459C74.1214 35.2886 72.4991 36.2308 70.9594 38.0524C70.7459 37.9158 70.5211 37.7962 70.2905 37.6909C66.824 36.1198 63.1754 38.8921 60.3635 41.4851C59.5352 42.2536 58.7384 43.0449 57.9785 43.8561C55.7101 42.5524 53.3052 41.5021 50.8064 40.7251C40.4865 37.4945 30.844 46.4547 29.3755 48.3504C28.6981 49.1701 28.3395 50.2062 28.3651 51.2707C26.7286 53.172 25.1121 56.2261 25.3369 60.7546C18.9959 64.7651 15.0227 71.4767 14.3255 79.5403L14.3112 79.6741C14.1063 80.9066 14.4052 82.1703 15.1423 83.1779C14.8634 84.4929 14.7581 85.8392 14.8292 87.1827C14.926 88.9047 15.2988 90.6011 15.9306 92.2065C15.648 92.0934 15.3637 91.9926 15.0791 91.8917L15.0791 91.8917C14.9768 91.8555 14.8746 91.8192 14.7723 91.7824L14.7239 91.7653C12.7431 91.122 10.6996 90.6865 8.62764 90.4588C8.32026 90.4247 8.05842 90.399 7.84212 90.382H7.77666H7.64574H7.60305H7.42375H7.32698H7.19037C7.19037 90.382 6.02348 91.1248 7.88766 93.53C8.20926 93.937 8.55079 94.327 8.91509 94.697C8.91509 94.697 12.0145 98.3801 15.6347 98.7587C17.1943 98.9209 18.5803 99.1287 19.7871 99.3507C15.6318 99.6126 12.1795 99.92 9.47007 100.185C5.22943 100.614 2.81881 100.982 2.45452 101.039C0.661494 101.548 -0.380166 103.415 0.12928 105.208C0.55619 106.708 1.95076 107.719 3.50756 107.659C3.51483 107.659 3.58003 107.65 3.70199 107.633C4.43994 107.528 7.25596 107.13 11.8892 106.703C15.3814 106.381 19.9066 106.04 25.3625 105.786L25.317 105.812C21.5886 107.975 18.4323 111.43 16.0786 114.598C14.3255 116.947 12.7772 119.44 11.4509 122.053C11.4509 122.053 11.9291 125.059 19.2264 122.264C19.2264 122.264 20.0233 122.022 21.2016 121.521C23.6947 120.465 27.9012 118.242 29.9276 114.633C31.7036 111.45 33.6787 108.382 35.8446 105.45L37.2676 105.433C39.9401 105.396 42.5926 105.382 45.2053 105.396H45.4301L41.6449 117.468C41.4826 117.986 41.3403 118.515 41.218 119.039L38.9724 128.895C38.48 131.013 38.3634 133.199 38.6252 135.357C47.0126 139.734 56.3334 142.014 65.7938 142C66.5707 142 67.342 141.98 68.1133 141.952L68.7337 141.929L69.3371 141.892C62.6289 135.061 59.5381 126.416 60.15 116.107C60.2525 114.408 60.4488 112.714 60.7391 111.035C60.853 110.488 60.9811 109.896 61.1319 109.262C61.4193 108.035 61.943 106.874 62.6745 105.846C65.3128 102.146 70.7488 100.247 78.0432 106.794C79.8249 108.433 81.4557 110.232 82.9129 112.168C82.5514 113.269 82.2696 114.393 82.0733 115.535C79.5943 116.266 73.4554 118.524 71.7079 123.257C71.4404 124.062 71.873 124.933 72.6784 125.201C73.4497 125.457 74.2864 125.07 74.591 124.319C75.9001 120.764 81.6748 118.734 83.7894 118.25C84.4327 118.105 84.9136 117.564 84.9791 116.907C84.9791 116.89 85.0133 116.579 85.0986 116.087C85.4345 114.112 86.5871 109.151 89.806 107.856C90.2443 107.676 90.7111 107.574 91.1835 107.548C91.2376 107.545 91.2945 107.545 91.3486 107.548C92.1085 107.525 92.6663 107.659 92.9253 107.932C92.9993 108.015 93.0562 108.112 93.0932 108.217C93.1559 108.399 93.1843 108.593 93.1729 108.786C93.079 109.43 93.4006 110.061 93.9755 110.363C94.5533 110.665 95.2563 110.574 95.7372 110.135C95.9336 109.953 97.7295 108.411 99.6563 109.76C101.364 110.952 100.763 112.538 100.544 112.982C100.208 113.597 100.325 114.359 100.829 114.849C101.316 115.321 102.058 115.404 102.636 115.051C102.827 114.968 103.578 114.724 104.495 115.541C104.754 115.771 104.97 116.477 104.873 117.533C104.688 119.562 103.467 122.403 100.82 125.46C100.345 125.995 100.396 126.815 100.931 127.287C101.054 127.395 101.193 127.478 101.344 127.535H101.381C102.201 127.805 103.103 127.538 103.641 126.863C106.404 123.485 107.705 120.271 107.93 117.801C108.112 115.808 107.617 114.194 106.541 113.246C105.804 112.563 104.884 112.108 103.894 111.934C103.942 110.403 103.393 108.607 101.418 107.235C99.7616 106.045 97.6043 105.803 95.7259 106.597C95.5835 106.341 95.4099 106.102 95.2136 105.886C94.2772 104.861 92.8656 104.394 91.0213 104.497C90.5403 104.525 90.065 104.599 89.5983 104.716C88.6591 103.324 87.6231 101.998 86.4961 100.754C81.7033 95.4968 74.7105 91.4892 65.2416 94.7197C62.8595 93.7805 60.5826 92.5936 58.4509 91.1761C58.3399 91.1021 58.2061 91.0622 58.0724 91.0622C57.8845 91.0651 57.7024 91.1419 57.5715 91.2757C53.6809 95.2719 48.4498 97.6913 42.8829 98.067C42.6154 98.0784 42.3792 98.2407 42.2738 98.4854C42.2568 98.531 42.2425 98.5765 42.234 98.6249C42.1856 98.8384 42.2397 99.0632 42.3792 99.234C42.7833 99.7179 42.8943 100.142 42.7121 100.495C42.3735 101.15 40.8964 101.764 38.443 101.565C34.6265 101.255 32.1418 99.957 30.6477 98.8099C30.511 98.7046 30.3801 98.6021 30.2606 98.5025C29.9845 98.2634 29.5861 98.2236 29.2702 98.4086C28.9457 98.5993 28.7778 98.975 28.8461 99.345L28.7863 99.4389C28.4733 99.4731 27.813 99.3137 26.9876 98.9437C25.354 98.1837 23.8996 97.0879 22.7185 95.7273C17.1545 89.3516 18.7596 83.9094 19.7301 81.8345C19.8497 81.5925 19.8326 81.3022 19.6818 81.0773C19.5082 80.824 19.1922 80.7102 18.8963 80.7927C18.549 80.8838 18.3583 80.8496 18.2957 80.7927C18.2331 80.7358 18.1762 80.6248 18.236 80.1779C18.236 80.1492 18.2408 80.1092 18.247 80.0576C18.2525 80.012 18.2591 79.9574 18.2644 79.8933C18.586 76.1931 20.2567 67.9786 28.6127 63.4672C28.6869 63.4272 28.7661 63.3886 28.8445 63.3503L28.8446 63.3503L28.8448 63.3502C28.8836 63.3312 28.9223 63.3124 28.9599 63.2936C29.2076 63.1854 29.4722 63.0744 29.7568 62.9605C30.8782 62.5194 32.028 62.1465 33.1977 61.8476C37.0371 60.8656 43.2159 60.1228 50.8434 62.155C51.8907 62.4311 52.9637 61.8049 53.2397 60.7575C53.2568 60.6892 53.2739 60.618 53.2824 60.5469C53.3194 60.2878 54.0509 55.6768 57.395 50.5506C57.7394 50.1066 58.098 49.6597 58.4822 49.2014C58.744 48.8912 59.0087 48.5809 59.2876 48.265C60.4745 46.9244 61.7267 45.6435 63.0445 44.431C66.5878 41.152 68.0535 41.0866 68.6114 41.3399C69.6786 41.8238 69.6103 44.3342 69.5876 45.1597C69.5733 45.5411 69.8323 45.8769 70.2052 45.9623C70.5695 46.0477 70.9423 45.8599 71.096 45.5183C73.0484 41.2004 74.5568 40.0249 75.4818 39.8001C75.9941 39.6834 76.5291 39.8257 76.919 40.1758C77.8924 40.9443 78.2169 44.3912 78.3705 46.0477L78.4104 46.486C78.4445 46.8618 78.6551 47.2005 78.9796 47.3969C79.3382 47.6047 79.7736 47.6331 80.1579 47.4737C82.3522 46.5743 86.5103 46.4661 92.5155 47.1464C92.3703 47.3058 92.2366 47.4766 92.1114 47.653C90.0309 50.6701 91.4454 54.8485 95.5466 57.8144C98.1621 59.7043 101.387 60.8372 103.979 60.8372C104.409 60.84 104.836 60.8059 105.26 60.7347C106.134 60.6123 106.948 60.2281 107.6 59.636C107.671 59.8524 107.739 60.0715 107.802 60.2935C108.109 61.3581 108.34 62.4425 108.488 63.5383C107.89 65.497 106.858 65.3141 106.769 65.2983L106.763 65.2974C106.435 65.2209 106.304 64.927 106.153 64.5892L106.134 64.5459C105.835 63.8457 105.024 63.5184 104.321 63.8173C104.016 63.9454 103.772 64.1816 103.627 64.4776C102.551 66.6465 101.15 68.0042 99.4656 68.5109C96.8586 69.2794 94.2971 67.8363 94.243 67.7993C93.5714 67.4349 92.7318 67.6826 92.3675 68.3543C92.0203 68.9919 92.228 69.7888 92.8399 70.1816C94.374 71.0185 96.0873 71.4682 97.8348 71.491C98.6431 71.4938 99.4485 71.3799 100.225 71.1522C102.135 70.583 103.752 69.3534 105.064 67.4776C105.499 67.8021 106.02 67.9985 106.561 68.0469C107.349 68.0896 108.126 67.8334 108.735 67.3325C108.658 73.9132 106.083 81.5925 98.8565 87.6096C98.5549 87.8658 98.5178 88.3155 98.774 88.6172C98.8167 88.6685 98.8679 88.7112 98.922 88.7482C106.709 93.8289 112.583 100.068 116.348 107.298C116.901 108.351 117.407 109.427 117.871 110.528C117.962 110.355 118.056 110.181 118.156 110.004C118.201 109.924 118.242 109.844 118.283 109.763L118.284 109.762C118.333 109.665 118.383 109.567 118.44 109.469C119.029 108.288 119.579 107.087 120.094 105.866C116.875 99.6325 111.96 93.3535 104.475 87.7605ZM50.0237 58.1588C40.9732 56.1379 33.8552 57.5668 29.4665 59.1237C29.8205 54.2874 33.1319 52.5158 33.3231 52.4135L33.3258 52.4121C33.6303 52.2612 33.7527 51.8912 33.6019 51.5867C33.5051 51.3903 33.3087 51.2622 33.0924 51.2479C32.8847 51.2366 32.6826 51.1853 32.4948 51.0971C32.5289 51.0288 32.5688 50.9662 32.6171 50.9092C34.2394 49.2185 36.095 47.7697 38.1271 46.6056C43.2159 43.671 47.1406 43.9471 49.537 44.6986C51.5264 45.3191 53.4504 46.1331 55.2804 47.1293C52.8498 50.4424 51.0654 54.1853 50.0237 58.1588ZM54.9787 84.4816C54.7396 84.2738 53.6012 83.2235 52.4685 81.066C51.5406 79.2529 50.869 77.3174 50.4762 75.3193C50.3937 74.9236 50.3168 74.5109 50.2457 74.0811C49.9725 72.3619 49.833 70.6257 49.8273 68.8837C49.8245 68.5052 49.5882 68.1665 49.2353 68.0298L49.1813 68.0071C47.3769 67.361 45.5013 66.9369 43.5944 66.7461C39.8945 66.3619 36.613 66.9454 34.0203 68.434C33.6645 68.639 33.3201 68.8638 32.9871 69.1058L32.9388 69.1371C29.8565 71.397 28.1915 74.713 28.3851 78.231C28.5814 82.0593 30.8583 85.5233 34.6293 87.7321C36.9603 89.0556 39.6014 89.7273 42.2795 89.6818C44.1238 89.6676 45.9595 89.4228 47.7412 88.9503C50.2258 88.3127 52.6165 87.3535 54.8563 86.104C55.2662 85.9246 55.4853 85.4721 55.3743 85.0394C55.3202 84.8089 55.1779 84.6068 54.9787 84.4816ZM79.8989 58.6057C81.191 57.7176 82.0363 56.2261 82.4034 54.174H82.4176C82.4205 54.1398 82.4262 54.1085 82.4347 54.0743C82.5969 53.3286 83.3341 52.8561 84.0798 53.0184C84.8254 53.1806 85.2979 53.9178 85.1356 54.6635C84.6177 57.4871 83.3768 59.5848 81.4358 60.9026C79.9131 61.8932 78.1286 62.4083 76.3128 62.377C75.7692 62.3827 75.2256 62.3372 74.6906 62.2433C73.9762 62.0782 73.5151 61.3894 73.6347 60.6664C73.7627 59.9121 74.4743 59.4055 75.2285 59.5307L75.2293 59.5309C75.3016 59.5437 77.8708 59.9993 79.8989 58.6057Z" fill="#2B3747"/>
</svg>
