<svg width="114" height="53" viewBox="0 0 114 53" fill="none" xmlns="http://www.w3.org/2000/svg">
<g clip-path="url(#clip0)">
<path fill-rule="evenodd" clip-rule="evenodd" d="M6.48688 52.019H0V16.4822H6.48688V37.0484L14.1583 28.3278H21.9764L12.5902 38.9888L24.1538 52.019H16.1439L6.4756 41.1211V52.019H6.48688ZM34.8035 27.8088C41.674 27.8088 47.2696 33.2578 47.2696 40.1734C47.2696 47.089 41.674 52.538 34.8035 52.538C27.9331 52.538 22.3374 47.089 22.3374 40.1734C22.3374 33.2578 27.9331 27.8088 34.8035 27.8088ZM34.8035 33.867C31.3965 33.867 28.8807 36.5182 28.8807 40.1734C28.8807 43.8173 31.3965 46.4798 34.8035 46.4798C38.2106 46.4798 40.6812 43.8286 40.6812 40.1734C40.6699 36.5295 38.2106 33.867 34.8035 33.867ZM49.4808 40.1734C49.4808 46.8972 54.3093 52.538 60.6157 52.538C63.8873 52.538 66.3918 50.8796 67.441 49.3679V52.019H73.9279V28.3278H67.441V30.979C66.4031 29.4672 63.8873 27.8088 60.6157 27.8088C54.3093 27.8088 49.4808 33.4496 49.4808 40.1734ZM67.96 40.1734C67.96 43.8738 65.5457 46.6152 61.9921 46.6152C58.4384 46.6152 56.0241 43.8625 56.0241 40.1734C56.0241 36.4843 58.4384 33.7316 61.9921 33.7316C65.5345 33.7316 67.96 36.4731 67.96 40.1734ZM100.688 52.538C94.3813 52.538 89.5528 46.8972 89.5528 40.1734C89.5528 33.4496 94.3813 27.8088 100.688 27.8088C103.959 27.8088 106.464 29.4672 107.513 30.979V28.3278H114V52.019H107.513V49.3679C106.464 50.8796 103.959 52.538 100.688 52.538ZM102.064 46.6152C105.618 46.6152 108.032 43.8625 108.032 40.1734C108.032 36.4843 105.618 33.7316 102.064 33.7316C98.5104 33.7316 96.0961 36.4843 96.0961 40.1734C96.0961 43.8625 98.5104 46.6152 102.064 46.6152Z" fill="#162437"/>
<path fill-rule="evenodd" clip-rule="evenodd" d="M65.5162 2.18822L65.5346 2.19993C66.6628 2.92195 69.0093 4.45624 71.1077 7.44584C73.3866 10.6949 74.1763 13.944 74.4696 15.9296C72.6533 13.583 70.3293 11.0447 67.3735 8.6304C66.55 7.95351 62.1502 4.38855 61.2589 3.71165C61.1447 3.62443 61.032 3.53893 60.9214 3.455L60.9211 3.45476C59.644 2.48579 58.6429 1.72629 58.7883 0.947678C58.856 0.586669 59.1493 0.361038 59.2282 0.304631C60.742 -0.850308 64.4959 1.53882 65.5162 2.18822ZM68.1237 14.7566L68.1238 14.7567C68.2535 14.8441 68.3832 14.9315 68.5129 15.0161C69.6862 15.8735 71.4348 17.3965 72.766 19.7769C73.4317 20.9502 73.8378 22.067 74.1085 23.0034C70.6226 20.5327 67.6893 18.8744 65.952 18.0621C64.068 17.1934 62.4209 16.6632 62.4209 16.6632L62.278 16.6183C61.7735 16.4597 61.3766 16.3349 60.8189 16.2006C60.5968 16.1467 60.3461 16.0901 60.0692 16.0275C59.3614 15.8677 58.4819 15.669 57.4683 15.3771C57.1185 15.2755 56.6673 15.1402 56.3401 14.734L56.3364 14.7292C56.2507 14.6193 55.913 14.1856 56.013 13.73C56.1145 13.2449 56.6334 12.9741 57.3216 12.7259C57.9367 12.5004 58.5891 12.3587 58.8555 12.3008L58.9236 12.2859L58.9574 12.2747C60.0179 12.128 61.8229 12.0265 63.9326 12.6357C65.6587 13.1321 66.9335 13.9218 67.7345 14.4971C67.8642 14.5817 67.994 14.6692 68.1237 14.7566ZM99.7627 3.01208C99.7853 2.87671 99.8417 2.49313 99.6273 2.22238C99.3904 1.92906 98.9505 1.92906 98.8038 1.92906C98.1156 1.92906 93.3097 2.9444 90.1734 7.56983C86.9808 12.2742 87.6351 17.6217 87.951 19.4493C88.2781 18.637 88.7294 17.5765 89.3273 16.3694L89.3292 16.3655C90.3552 14.2798 91.3589 12.2392 92.8584 10.3902C93.9477 9.04138 95.4158 7.66958 96.719 6.45199L96.719 6.45195C98.3041 4.97084 99.6451 3.71792 99.7627 3.01208ZM96.0736 13.6395C99.6385 10.5258 102.73 9.83767 103.959 9.6346C104.76 9.49922 107.513 9.05924 108.077 10.1423C108.122 10.2325 108.246 10.5033 108.122 10.9997C107.758 12.4645 105.916 13.2634 103.061 14.5014C102.2 14.8748 101.246 15.2881 100.214 15.7718C98.6909 16.4825 96.9084 17.3286 94.9905 18.5583C92.5763 20.1039 90.8164 21.7284 89.6769 22.8791C90.6697 20.3633 92.5312 16.742 96.0736 13.6395Z" fill="#34D098"/>
<path d="M84.7344 35.5048C84.8686 35.3699 84.9599 35.1982 84.9968 35.0115C85.0337 34.8249 85.0146 34.6314 84.9419 34.4556C84.8692 34.2797 84.7461 34.1293 84.5881 34.0231C84.4301 33.917 84.2443 33.86 84.054 33.8592H78.263C78.0714 33.8484 77.8808 33.8949 77.7158 33.9929C77.5507 34.0909 77.4187 34.2359 77.3364 34.4093C77.2578 34.5748 77.2323 34.7606 77.2634 34.9412C77.2945 35.1218 77.3807 35.2883 77.5102 35.418C78.1954 36.6871 78.8759 42.3481 78.263 43.5305C78.1288 43.6654 78.8538 44.0864 78.263 44.0864C78.2261 44.273 78.1903 44.4664 78.263 44.6423C78.3357 44.8181 78.6491 45.0921 78.8071 45.1982C78.965 45.3043 78.0727 45.4404 78.263 45.4412H84.054C84.2456 45.452 83.889 45.3526 84.054 45.2546C84.2191 45.1566 83.728 44.8157 83.8102 44.6423C82.8836 44.5961 83.8413 44.4694 83.8102 44.2889C83.8102 44.2889 84.1835 42.9228 84.054 42.7931C83.3687 41.5239 84.1216 36.6871 84.7344 35.5048Z" fill="#162437"/>
<path d="M84.3725 45.2143C84.4036 45.7435 84.5437 46.1638 84.7927 46.4751C85.0418 46.7864 85.3375 47.0199 85.68 47.1756C86.0535 47.3001 86.4582 47.3779 86.894 47.409C87.361 47.409 87.8435 47.3779 88.3416 47.3156V52.1254C87.9058 52.2187 87.5167 52.281 87.1742 52.3121C86.8629 52.3744 86.5827 52.4211 86.3337 52.4522C86.0535 52.4834 85.82 52.4834 85.6333 52.4522C84.4503 52.4522 83.3918 52.4055 82.4579 52.3121C81.524 52.2187 80.7302 51.923 80.0764 51.4249C79.4227 50.8957 78.9246 50.1174 78.5821 49.0901C78.2397 48.0317 78.0685 46.5374 78.0685 44.6073V34.9417H84.3725V45.2143Z" fill="#162437"/>
<path d="M84.6846 21.3592C84.8179 21.2035 84.9085 21.0054 84.9452 20.79C84.9819 20.5746 84.9629 20.3514 84.8906 20.1484C84.8184 19.9455 84.6962 19.7719 84.5392 19.6495C84.3823 19.527 84.1977 19.4612 84.0087 19.4603H78.2563C78.0659 19.4478 77.8766 19.5015 77.7127 19.6146C77.5487 19.7277 77.4176 19.895 77.3359 20.0951C77.2577 20.2861 77.2324 20.5005 77.2633 20.7088C77.2942 20.9172 77.3798 21.1094 77.5084 21.259C78.1891 22.7235 78.1891 29.4253 77.5803 30.7896C77.4471 30.9453 77.3564 31.1434 77.3197 31.3588C77.2831 31.5742 77.3021 31.7974 77.3743 32.0004C77.4465 32.2033 77.5688 32.3769 77.7257 32.4994C77.8826 32.6218 78.0672 32.6876 78.2563 32.6885H84.0087C84.1991 32.701 84.3883 32.6473 84.5522 32.5342C84.7162 32.4211 84.8474 32.2538 84.9291 32.0537C85.0072 31.8627 85.0326 31.6484 85.0017 31.44C84.9708 31.2316 84.8851 31.0395 84.7565 30.8898C84.0758 29.4253 84.0758 22.7235 84.6846 21.3592Z" fill="#162437"/>
<path d="M84.6846 6.95979C84.8179 6.80406 84.9085 6.60602 84.9452 6.39059C84.9819 6.17516 84.9629 5.95195 84.8906 5.74901C84.8184 5.54608 84.6962 5.37248 84.5392 5.25004C84.3823 5.1276 84.1977 5.06178 84.0087 5.06086H78.2563C78.0659 5.04836 77.8766 5.10209 77.7127 5.21517C77.5487 5.32825 77.4176 5.49555 77.3359 5.69569C77.2577 5.88667 77.2324 6.10104 77.2633 6.30941C77.2942 6.51778 77.3798 6.70995 77.5084 6.85956C78.1891 8.32413 78.1891 15.0259 77.5803 16.3902C77.4471 16.5459 77.3564 16.744 77.3197 16.9594C77.2831 17.1748 77.3021 17.398 77.3743 17.601C77.4465 17.8039 77.5688 17.9775 77.7257 18.0999C77.8826 18.2224 78.0672 18.2882 78.2563 18.2891H84.0087C84.1991 18.3016 84.3883 18.2479 84.5522 18.1348C84.7162 18.0217 84.8474 17.8544 84.9291 17.6543C85.0072 17.4633 85.0326 17.249 85.0017 17.0406C84.9708 16.8322 84.8851 16.64 84.7565 16.4904C84.0758 15.0259 84.0758 8.32413 84.6846 6.95979Z" fill="#162437"/>
</g>
<defs>
<clipPath id="clip0">
<rect width="114" height="52.5381" fill="white"/>
</clipPath>
</defs>
</svg>
